<?xml version="1.0" encoding="UTF-8" standalone="no"?>
<!DOCTYPE svg PUBLIC "-//W3C//DTD SVG 1.1//EN" "http://www.w3.org/Graphics/SVG/1.1/DTD/svg11.dtd">
<svg width="100%" height="100%" viewBox="0 0 10472 1803" version="1.1" xmlns="http://www.w3.org/2000/svg" xmlns:xlink="http://www.w3.org/1999/xlink" xml:space="preserve" xmlns:serif="http://www.serif.com/" style="fill-rule:evenodd;clip-rule:evenodd;stroke-linejoin:round;stroke-miterlimit:2;">
    <g transform="matrix(1,0,0,1,-26985.8,-21987.8)">
        <g transform="matrix(4.22177,0,0,0.513847,26985.8,21987.8)">
            <rect id="Schriftlogo" x="0" y="0" width="2480.32" height="3507.87" style="fill:none;"/>
            <g id="Schriftlogo1" serif:id="Schriftlogo">
                <g transform="matrix(1.7392,0,0,5.23064,-913.482,-11441.2)">
                    <g transform="matrix(0.236867,0,0,0.647085,-6290.52,-7947)">
                        <path d="M29065.1,15890.7L29227.4,15890.7C29321.9,15890.7 29389.8,15909.2 29431.3,15946.2C29472.7,15983.3 29493.5,16030.5 29493.5,16087.7C29493.5,16149.6 29463.3,16199.3 29402.8,16236.9C29471.3,16263.9 29505.6,16315.4 29505.6,16391.2C29505.6,16452 29484.3,16501 29441.8,16538.3C29399.3,16575.5 29343.3,16594.1 29273.7,16594.1L29065.1,16594.1L29065.1,15890.7ZM29224.7,16025.6L29224.7,16177.3C29296,16175.6 29331.7,16150.8 29331.7,16103C29331.7,16074.6 29323.2,16054.7 29306.1,16043.5C29289.1,16032.2 29262,16026.3 29224.7,16025.6ZM29224.7,16304.8L29224.7,16457.1C29265.1,16456.4 29295.4,16450.2 29315.6,16438.4C29335.8,16426.6 29345.9,16407.2 29345.9,16380.2C29345.9,16329.9 29309.9,16304.8 29237.9,16304.8L29224.7,16304.8Z" style="fill:rgb(255,204,226);fill-rule:nonzero;"/>
                        <path d="M29665.9,15890.7L29825.6,15890.7L29825.6,16431.3L29952,16431.3L29952,16594.1L29665.9,16594.1L29665.9,15890.7Z" style="fill:rgb(255,204,226);fill-rule:nonzero;"/>
                        <path d="M30602.9,16594.1L30437,16594.1L30410.1,16476.6L30241.5,16476.6L30213.5,16594.1L30050.7,16594.1L30237.2,15890.7L30416.4,15890.7L30602.9,16594.1ZM30379.5,16350.1C30355.6,16245.5 30337.7,16145.9 30325.8,16051.4L30323.7,16051.4C30311,16148.7 30293.3,16248.3 30270.4,16350.1L30379.5,16350.1Z" style="fill:rgb(255,204,226);fill-rule:nonzero;"/>
                        <path d="M30734.3,15890.7L30895.5,15890.7L31098.4,16296.4L31092.6,16220.5L31092.6,15890.7L31252.3,15890.7L31252.3,16594.1L31088.4,16594.1L30889.7,16194.7L30893.9,16282.2L30893.9,16594.1L30734.3,16594.1L30734.3,15890.7Z" style="fill:rgb(255,204,226);fill-rule:nonzero;"/>
                        <path d="M31454.2,15890.7L31613.9,15890.7L31613.9,16221.6L31616.5,16221.6L31767.2,15890.7L31934.8,15890.7L31771.4,16250L31927.9,16594.1L31752.5,16594.1L31616.5,16301.7L31613.9,16301.7L31613.9,16594.1L31454.2,16594.1L31454.2,15890.7Z" style="fill:rgb(255,204,226);fill-rule:nonzero;"/>
                        <path d="M32380.3,15890.7L32577.9,15890.7C32647.5,15890.7 32703.3,15910.5 32745.5,15950.2C32787.6,15989.9 32808.7,16042.2 32808.7,16107.2C32808.7,16175.7 32787.4,16229.4 32744.7,16268.2C32702,16307 32642.9,16326.4 32567.4,16326.4L32540,16326.4L32540,16594.1L32380.3,16594.1L32380.3,15890.7ZM32540,16025.6L32540,16191.5C32575.8,16190.8 32602.2,16184 32619.3,16171C32636.3,16158 32644.8,16137.4 32644.8,16109.3C32644.8,16079.1 32636.6,16057.8 32620.1,16045.3C32603.6,16032.8 32576.9,16026.3 32540,16025.6Z" style="fill:rgb(0,42,54);fill-rule:nonzero;"/>
                        <path d="M33422.7,16594.1L33256.7,16594.1L33229.9,16476.6L33061.2,16476.6L33033.3,16594.1L32870.5,16594.1L33057,15890.7L33236.2,15890.7L33422.7,16594.1ZM33199.3,16350.1C33175.4,16245.5 33157.5,16145.9 33145.6,16051.4L33143.4,16051.4C33130.8,16148.7 33113.1,16248.3 33090.2,16350.1L33199.3,16350.1Z" style="fill:rgb(0,42,54);fill-rule:nonzero;"/>
                        <path d="M34028.3,16200L34028.3,16318C34028.3,16409.3 34006.3,16481.1 33962.2,16533.3C33918.1,16585.4 33857.8,16611.5 33781.2,16611.5C33695.5,16611.5 33629.2,16579.3 33582.5,16514.8C33535.8,16450.3 33512.4,16358.4 33512.4,16239C33512.4,16118.5 33535.7,16027 33582.3,15964.7C33628.8,15902.3 33696.9,15871.2 33786.4,15871.2C33886.9,15871.2 33959.6,15924.7 34004.6,16031.9L33852.3,16094.6C33839.7,16072.1 33827.9,16055.7 33817,16045.3C33806.1,16034.9 33791.2,16029.8 33772.2,16029.8C33739.9,16029.8 33717,16046.7 33703.5,16080.6C33689.9,16114.5 33683.2,16169.4 33683.2,16245.3C33683.2,16315.9 33690.8,16367.8 33706.1,16401C33721.4,16434.2 33745.7,16450.8 33779.1,16450.8C33832.5,16450.8 33860,16412.7 33861.8,16336.4L33787.5,16336.4L33787.5,16200L34028.3,16200Z" style="fill:rgb(0,42,54);fill-rule:nonzero;"/>
                        <path d="M34196.5,15890.7L34519.6,15890.7L34519.6,16040.3L34356.2,16040.3L34356.2,16169.9L34497.9,16169.9L34497.9,16315.9L34356.2,16315.9L34356.2,16443.9L34520.6,16443.9L34520.6,16594.1L34196.5,16594.1L34196.5,15890.7Z" style="fill:rgb(0,42,54);fill-rule:nonzero;"/>
                    </g>
                    <g transform="matrix(-0.0794268,0,0,0.239212,1713.9,2149.12)">
                        <path d="M3888.87,419.772C3888.66,416.815 3889.04,413.905 3890.07,411.127C3895.8,395.626 3919.52,390.091 3943.02,398.773C3966.51,407.456 3980.93,427.09 3975.2,442.591C3972.76,449.205 3967.03,454.005 3959.45,456.66C4083.88,530.064 4252.09,670.729 4338.03,756.145C4433.07,850.608 4412.1,854.528 4393.93,894.467C4375.76,934.405 4315.46,991.098 4315.46,991.098C4239.3,1065.4 4232.3,1107.13 4209.75,1102.26C4255.76,970.018 3647.4,769.009 3390.7,811.028C3268.37,831.053 3186.92,901.4 3173.72,892.701C3160.51,884.001 3141.35,774.193 3141.35,774.193C3139.2,730.375 3120.93,703.127 3120.93,703.127C3093.74,657.556 3099.81,601.295 3099.81,601.295C3116.98,565.072 3144.89,507.524 3144.89,507.524C3149.18,418.134 3359.7,376.407 3359.7,376.407C3615.55,322.094 3768.36,363.385 3888.87,419.772Z" style="fill:rgb(255,204,226);"/>
                    </g>
                </g>
            </g>
        </g>
    </g>
</svg>
