<?xml version="1.0" encoding="UTF-8" standalone="no"?>
<!DOCTYPE svg PUBLIC "-//W3C//DTD SVG 1.1//EN" "http://www.w3.org/Graphics/SVG/1.1/DTD/svg11.dtd">
<svg width="100%" height="100%" viewBox="0 0 8376 2481" version="1.1" xmlns="http://www.w3.org/2000/svg" xmlns:xlink="http://www.w3.org/1999/xlink" xml:space="preserve" xmlns:serif="http://www.serif.com/" style="fill-rule:evenodd;clip-rule:evenodd;stroke-linecap:round;stroke-linejoin:round;stroke-miterlimit:1.5;">
    <g transform="matrix(1,0,0,1,-878.567,-13902.2)">
        <g transform="matrix(3.50974,0,0,0.767141,694.514,13796.8)">
            <g transform="matrix(0.284921,0,0,1.30354,52.4408,-139.245)">
                <circle cx="1240.16" cy="1452.34" r="1240.16" style="fill:rgb(0,42,54);"/>
            </g>
        </g>
        <g transform="matrix(3.50974,0,0,0.767141,694.514,13796.8)">
            <g transform="matrix(0.314673,0,0,1.43966,-8423.86,-21511.5)">
                <g>
                    <path d="M29065.1,15890.7L29227.4,15890.7C29321.9,15890.7 29389.8,15909.2 29431.3,15946.2C29472.7,15983.3 29493.5,16030.5 29493.5,16087.7C29493.5,16149.6 29463.3,16199.3 29402.8,16236.9C29471.3,16263.9 29505.6,16315.4 29505.6,16391.2C29505.6,16452 29484.3,16501 29441.8,16538.3C29399.3,16575.5 29343.3,16594.1 29273.7,16594.1L29065.1,16594.1L29065.1,15890.7ZM29224.7,16025.6L29224.7,16177.3C29296,16175.6 29331.7,16150.8 29331.7,16103C29331.7,16074.6 29323.2,16054.7 29306.1,16043.5C29289.1,16032.2 29262,16026.3 29224.7,16025.6ZM29224.7,16304.8L29224.7,16457.1C29265.1,16456.4 29295.4,16450.2 29315.6,16438.4C29335.8,16426.6 29345.9,16407.2 29345.9,16380.2C29345.9,16329.9 29309.9,16304.8 29237.9,16304.8L29224.7,16304.8Z" style="fill:rgb(255,204,226);fill-rule:nonzero;"/>
                    <path d="M29665.9,15890.7L29825.6,15890.7L29825.6,16431.3L29952,16431.3L29952,16594.1L29665.9,16594.1L29665.9,15890.7Z" style="fill:rgb(255,204,226);fill-rule:nonzero;"/>
                    <path d="M30602.9,16594.1L30437,16594.1L30410.1,16476.6L30241.5,16476.6L30213.5,16594.1L30050.7,16594.1L30237.2,15890.7L30416.4,15890.7L30602.9,16594.1ZM30379.5,16350.1C30355.6,16245.5 30337.7,16145.9 30325.8,16051.4L30323.7,16051.4C30311,16148.7 30293.3,16248.3 30270.4,16350.1L30379.5,16350.1Z" style="fill:rgb(255,204,226);fill-rule:nonzero;"/>
                    <path d="M30734.3,15890.7L30895.5,15890.7L31098.4,16296.4L31092.6,16220.5L31092.6,15890.7L31252.3,15890.7L31252.3,16594.1L31088.4,16594.1L30889.7,16194.7L30893.9,16282.2L30893.9,16594.1L30734.3,16594.1L30734.3,15890.7Z" style="fill:rgb(255,204,226);fill-rule:nonzero;"/>
                    <path d="M31454.2,15890.7L31613.9,15890.7L31613.9,16221.6L31616.5,16221.6L31767.2,15890.7L31934.8,15890.7L31771.4,16250L31927.9,16594.1L31752.5,16594.1L31616.5,16301.7L31613.9,16301.7L31613.9,16594.1L31454.2,16594.1L31454.2,15890.7Z" style="fill:rgb(255,204,226);fill-rule:nonzero;"/>
                    <path d="M32380.3,15890.7L32577.9,15890.7C32647.5,15890.7 32703.3,15910.5 32745.5,15950.2C32787.6,15989.9 32808.7,16042.2 32808.7,16107.2C32808.7,16175.7 32787.4,16229.4 32744.7,16268.2C32702,16307 32642.9,16326.4 32567.4,16326.4L32540,16326.4L32540,16594.1L32380.3,16594.1L32380.3,15890.7ZM32540,16025.6L32540,16191.5C32575.8,16190.8 32602.2,16184 32619.3,16171C32636.3,16158 32644.8,16137.4 32644.8,16109.3C32644.8,16079.1 32636.6,16057.8 32620.1,16045.3C32603.6,16032.8 32576.9,16026.3 32540,16025.6Z" style="fill:rgb(0,42,54);fill-rule:nonzero;"/>
                    <path d="M33422.7,16594.1L33256.7,16594.1L33229.9,16476.6L33061.2,16476.6L33033.3,16594.1L32870.5,16594.1L33057,15890.7L33236.2,15890.7L33422.7,16594.1ZM33199.3,16350.1C33175.4,16245.5 33157.5,16145.9 33145.6,16051.4L33143.4,16051.4C33130.8,16148.7 33113.1,16248.3 33090.2,16350.1L33199.3,16350.1Z" style="fill:rgb(0,42,54);fill-rule:nonzero;"/>
                    <path d="M34028.3,16200L34028.3,16318C34028.3,16409.3 34006.3,16481.1 33962.2,16533.3C33918.1,16585.4 33857.8,16611.5 33781.2,16611.5C33695.5,16611.5 33629.2,16579.3 33582.5,16514.8C33535.8,16450.3 33512.4,16358.4 33512.4,16239C33512.4,16118.5 33535.7,16027 33582.3,15964.7C33628.8,15902.3 33696.9,15871.2 33786.4,15871.2C33886.9,15871.2 33959.6,15924.7 34004.6,16031.9L33852.3,16094.6C33839.7,16072.1 33827.9,16055.7 33817,16045.3C33806.1,16034.9 33791.2,16029.8 33772.2,16029.8C33739.9,16029.8 33717,16046.7 33703.5,16080.6C33689.9,16114.5 33683.2,16169.4 33683.2,16245.3C33683.2,16315.9 33690.8,16367.8 33706.1,16401C33721.4,16434.2 33745.7,16450.8 33779.1,16450.8C33832.5,16450.8 33860,16412.7 33861.8,16336.4L33787.5,16336.4L33787.5,16200L34028.3,16200Z" style="fill:rgb(0,42,54);fill-rule:nonzero;"/>
                    <path d="M34196.5,15890.7L34519.6,15890.7L34519.6,16040.3L34356.2,16040.3L34356.2,16169.9L34497.9,16169.9L34497.9,16315.9L34356.2,16315.9L34356.2,16443.9L34520.6,16443.9L34520.6,16594.1L34196.5,16594.1L34196.5,15890.7Z" style="fill:rgb(0,42,54);fill-rule:nonzero;"/>
                </g>
            </g>
        </g>
        <g transform="matrix(3.50974,0,0,0.767141,694.514,13796.8)">
            <g transform="matrix(0.190884,0.49773,-0.174897,1.40397,953.941,-64229.4)">
                <g transform="matrix(0.681533,0.22006,-0.264169,0.316555,23272.5,15649.3)">
                    <path d="M32133,36114.4C32133,36114.4 32145.2,37034.9 32229.5,37075.2C32313.7,37034.9 32325.9,36114.4 32325.9,36114.4L32133,36114.4" style="fill:rgb(0,42,54);"/>
                </g>
                <g transform="matrix(0.591424,0.190965,-0.432655,0.518451,32493.8,8993.61)">
                    <path d="M32281.2,35855.7C32281.2,35855.7 31951,36165.9 32207.1,36276.3C32207.1,36276.3 32455,36331.5 32398.2,36105.8C32387,36072.6 32300,36076.5 32281.2,35855.7Z" style="fill:rgb(0,42,54);"/>
                </g>
            </g>
        </g>
        <g transform="matrix(3.50974,0,0,0.767141,694.514,13796.8)">
            <g transform="matrix(0.208651,0,0,0.954599,-6822.22,-33037.9)">
                <path d="M34454.6,37464.6L34397.5,37665.9C34397.5,37665.9 34661.6,37785.5 34862.8,37665.9L34801.5,37460.7L34454.6,37464.6Z" style="fill:rgb(167,187,198);"/>
            </g>
        </g>
        <g transform="matrix(3.50974,0,0,0.767141,694.514,13796.8)">
            <g transform="matrix(0.188375,0,0,0.861832,-5338.83,-24792.9)">
                <path d="M30498.1,29935.9C31043.5,29940.9 31386.5,30346.9 31349.6,30860.7C31313,31369.8 30968,31989.9 30498.1,31989.9C30028.2,31989.9 29687.7,31369.5 29646.6,30860.7C29604.9,30343.9 29935.9,29930.8 30498.1,29935.9Z" style="fill:rgb(186,202,210);"/>
            </g>
        </g>
        <g transform="matrix(3.50974,0,0,0.767141,694.514,13796.8)">
            <g transform="matrix(0.208651,0,0,0.954599,-6253.2,-27528.1)">
                <path d="M32163.8,31670.4L32035,31475.3L31784.1,31475.3L31663.6,31668.7" style="fill:none;stroke:rgb(152,174,186);stroke-width:22.76px;"/>
            </g>
        </g>
        <g transform="matrix(3.50974,0,0,0.767141,694.514,13796.8)">
            <g transform="matrix(0.208651,0,0,0.954599,-6253.2,-27528.1)">
                <path d="M31711.7,29892L31539.1,30537.4L32281.2,30537.4L32117.4,29892L31711.7,29892Z" style="fill:none;stroke:rgb(152,174,186);stroke-width:22.76px;"/>
            </g>
        </g>
        <g transform="matrix(3.50974,0,0,0.767141,694.514,13796.8)">
            <g transform="matrix(0.208651,0,0,0.954599,-6242.14,-27528.7)">
                <g>
                    <g transform="matrix(-1.06949,0,0,0.977612,62973,667.293)">
                        <ellipse cx="29468.2" cy="30743.7" rx="146.328" ry="166.169" style="fill:rgb(237,30,121);"/>
                    </g>
                    <g transform="matrix(-1,0,0,1,60915.3,11.4882)">
                        <path d="M29269.2,30677.7C29269.2,30677.7 29369.7,30538.8 29633.8,30628.1C29633.8,30628.1 29668.5,30633 29702,30574.7C29702,30574.7 29380.8,30414.8 29269.2,30677.7Z" style="fill:rgb(0,42,54);"/>
                    </g>
                </g>
                <g transform="matrix(1,0,0,1,0,-0.699135)">
                    <circle cx="31557" cy="30716.2" r="56.481" style="fill:white;"/>
                </g>
                <g transform="matrix(0.394051,0,0,0.394051,19061.2,18660.8)">
                    <circle cx="31557" cy="30716.2" r="56.481" style="fill:white;"/>
                </g>
            </g>
        </g>
        <g transform="matrix(3.50974,0,0,0.767141,694.514,13796.8)">
            <g transform="matrix(0.208651,0,0,0.954599,-6258.99,-27528.7)">
                <g transform="matrix(1,0,0,1,87.1923,-22.4405)">
                    <g transform="matrix(1.06949,0,0,0.977612,737.862,689.734)">
                        <ellipse cx="29468.2" cy="30743.7" rx="146.328" ry="166.169" style="fill:rgb(237,30,121);"/>
                    </g>
                    <g transform="matrix(1,0,0,1,2795.52,33.9288)">
                        <path d="M29269.2,30677.7C29269.2,30677.7 29369.7,30538.8 29633.8,30628.1C29633.8,30628.1 29668.5,30633 29702,30574.7C29702,30574.7 29380.8,30414.8 29269.2,30677.7Z" style="fill:rgb(0,42,54);"/>
                    </g>
                </g>
                <g transform="matrix(1,0,0,1,884.077,-8.11084)">
                    <circle cx="31557" cy="30716.2" r="56.481" style="fill:white;"/>
                </g>
                <g transform="matrix(0.394051,0,0,0.394051,19945.3,18653.4)">
                    <circle cx="31557" cy="30716.2" r="56.481" style="fill:white;"/>
                </g>
            </g>
        </g>
        <g transform="matrix(3.50974,0,0,0.767141,694.514,13796.8)">
            <g transform="matrix(0.208651,0,0,0.954599,-6253.2,-27528.1)">
                <path d="M31170.4,30884.5L31369,30926L31539.1,31456.5L31539.1,31575.1" style="fill:none;stroke:rgb(152,174,186);stroke-width:22.76px;"/>
            </g>
        </g>
        <g transform="matrix(3.50974,0,0,0.767141,694.514,13796.8)">
            <g transform="matrix(-0.208651,0,0,0.954599,7062.98,-27528.1)">
                <path d="M31170.4,30884.5L31369,30926L31539.1,31456.5L31539.1,31586.6" style="fill:none;stroke:rgb(152,174,186);stroke-width:22.76px;"/>
            </g>
        </g>
        <g transform="matrix(3.50974,0,0,0.767141,694.514,13796.8)">
            <g transform="matrix(0.208651,0,0,0.954599,-6253.2,-27528.1)">
                <path d="M31910.1,30078.8L31916.2,31287.4" style="fill:none;stroke:rgb(152,174,186);stroke-width:22.76px;"/>
            </g>
        </g>
        <g transform="matrix(3.50974,0,0,0.767141,694.514,13796.8)">
            <g transform="matrix(0.208651,0,0,0.954599,-6253.2,-27528.1)">
                <path d="M31491,31303.4L31784.1,31475.3" style="fill:none;stroke:rgb(152,174,186);stroke-width:22.76px;"/>
            </g>
        </g>
        <g transform="matrix(3.50974,0,0,0.767141,694.514,13796.8)">
            <g transform="matrix(-0.208651,0,0,0.954599,7062.72,-27528.1)">
                <path d="M31491,31303.4L31784.1,31475.3" style="fill:none;stroke:rgb(152,174,186);stroke-width:22.76px;"/>
            </g>
        </g>
        <g transform="matrix(3.50974,0,0,0.767141,694.514,13796.8)">
            <g transform="matrix(0.255628,0,0,1.16952,-7014.69,-34250.1)">
                <path d="M28921.8,31271.1C28921.8,31271.1 29152,31220.5 29262.1,31178.9C29262.1,31178.9 29154.9,31478.5 28921.8,31271.1Z" style="fill:white;stroke:rgb(237,30,121);stroke-width:41.8px;"/>
            </g>
        </g>
        <g transform="matrix(3.50974,0,0,0.767141,694.514,13796.8)">
            <g transform="matrix(0.208651,6.62386e-18,7.23904e-19,0.954599,-6259.17,-33223.3)">
                <ellipse cx="32544.5" cy="36916.7" rx="130" ry="66.154" style="fill:rgb(255,204,226);"/>
            </g>
        </g>
        <g transform="matrix(3.50974,0,0,0.767141,694.514,13796.8)">
            <g transform="matrix(0.208651,6.62386e-18,7.23904e-19,0.954599,-6512.17,-33223.3)">
                <ellipse cx="32544.5" cy="36916.7" rx="130" ry="66.154" style="fill:rgb(255,204,226);"/>
            </g>
        </g>
        <g transform="matrix(3.50974,0,0,0.767141,694.514,13796.8)">
            <g transform="matrix(0.208651,0,0,0.954599,-6820.2,-30099.5)">
                <path d="M35301.7,33760.1C35304.3,33724.5 35274.2,33151.7 35274.2,33151.7C35189,33140.9 35175,33133.1 35175,33133.1C35176.6,33088.2 35130.1,33004.5 35130.1,33004.5C35130.1,33086.6 35106.8,33106.8 35106.8,33106.8C34962.7,33178.1 34874.3,33116.1 34874.3,33116.1C34874.3,32976.6 34812.3,32863.4 34812.3,32863.4C34820.1,32973.5 34784.4,33057.2 34784.4,33057.2C34631,33119.2 34567.4,33043.2 34567.4,33043.2C34528.5,32992.3 34557.2,32823.4 34565.7,32778.7C34563.2,32778.4 34560.6,32778.1 34558.1,32777.8C34399,32943.9 34416.5,33106.8 34416.5,33106.8L34207.6,33140.1C34163.7,33119.7 34197.2,32994.7 34197.2,32994.7C34183.3,33039.7 34037.6,33183 34037.6,33183C33930.6,33269.8 33952.3,33255.3 33952.3,33255.3C33921.3,33269.3 33960.3,33600.7 33965.9,33633.5L33967.1,33633.8C33990,33803.8 33862.2,34475.7 33862.2,34475.7C33858.5,34262.4 33817.7,33707.4 33810.7,33613.3C33791.6,33576.1 33776.4,33530.6 33776.4,33530.6C33726,33271 33793.8,33094.7 33793.8,33094.7C33871.3,32860.2 34041.8,32697.5 34041.8,32697.5C34116.1,32640.1 34204.3,32600.7 34280.2,32574.6C34260.9,32538.3 34244.8,32497.7 34231.9,32453.2C34187.8,32300.1 34414.2,32228.4 34633.7,32125.9C34863.4,32018.6 35060.7,32215.9 35035.5,32453.2C35031.5,32490.5 35021.5,32526 35006,32558.8C35050.6,32568.5 35053.3,32576.7 35053.3,32576.7C35156,32634.8 35225.7,32697.8 35225.7,32697.8C35462.1,32901.2 35488,33207.7 35488,33207.7C35520.4,33322.8 35505.2,33433.6 35473.8,33527C35442.8,33727.3 35272.4,34517 35272.4,34517C35239,34451.6 35271.1,33988.1 35301.7,33760.1Z" style="fill:rgb(237,30,121);"/>
            </g>
        </g>
        <g transform="matrix(3.50974,0,0,0.767141,694.514,13796.8)">
            <g transform="matrix(0.109871,1.04455,-0.367043,0.808115,9028.42,-64004)">
                <g transform="matrix(0.681533,0.22006,-0.353778,0.423933,26570,11678.2)">
                    <clipPath id="_clip1">
                        <rect x="32133" y="36657.1" width="192.917" height="418.137"/>
                    </clipPath>
                    <g clip-path="url(#_clip1)">
                        <path d="M32133,36114.4C32133,36114.4 32145.2,37034.9 32229.5,37075.2C32313.7,37034.9 32325.9,36114.4 32325.9,36114.4L32133,36114.4" style="fill:rgb(255,204,226);"/>
                    </g>
                </g>
                <g transform="matrix(0.591424,0.190965,-0.432655,0.518451,32415.7,9065.14)">
                    <clipPath id="_clip2">
                        <rect x="32102.7" y="35818.9" width="296.909" height="426.562"/>
                    </clipPath>
                    <g clip-path="url(#_clip2)">
                        <path d="M32281.2,35855.7C32281.2,35855.7 31951,36165.9 32207.1,36276.3C32207.1,36276.3 32455,36331.5 32398.2,36105.8C32387,36072.6 32300,36076.5 32281.2,35855.7Z" style="fill:rgb(255,204,226);"/>
                    </g>
                </g>
            </g>
        </g>
        <g transform="matrix(3.50974,0,0,0.767141,694.514,13796.8)">
            <g transform="matrix(0.208651,0,0,0.954599,-6822.22,-33037.9)">
                <path d="M34415.4,37532.3C34415.4,37532.3 34649.3,37621.9 34846.2,37532.8" style="fill:none;stroke:rgb(152,174,186);stroke-width:22.76px;"/>
            </g>
        </g>
        <g transform="matrix(3.50974,0,0,0.767141,694.514,13796.8)">
            <g transform="matrix(0.227962,0,0,0.954599,-7491.52,-32966.7)">
                <path d="M34415.4,37532.3C34415.4,37532.3 34649.3,37621.9 34846.2,37532.8" style="fill:none;stroke:rgb(152,174,186);stroke-width:21.73px;"/>
            </g>
        </g>
        <g transform="matrix(3.50974,0,0,0.767141,694.514,13796.8)">
            <g transform="matrix(0.198298,0.296961,-0.0649081,0.907234,-4011.69,-41438.1)">
                <rect x="34311.3" y="37502.1" width="8.719" height="32.967" style="fill:rgb(152,174,186);stroke:rgb(152,174,186);stroke-width:22.76px;"/>
            </g>
        </g>
        <g transform="matrix(3.50974,0,0,0.767141,694.514,13796.8)">
            <g transform="matrix(0.216651,0.296961,-0.0709155,0.907234,-4420.87,-41367)">
                <rect x="34311.3" y="37502.1" width="8.719" height="32.967" style="fill:rgb(152,174,186);stroke:rgb(152,174,186);stroke-width:22.32px;"/>
            </g>
        </g>
        <g transform="matrix(3.50974,0,0,0.767141,694.514,13796.8)">
            <g transform="matrix(0.193988,-0.351536,0.0768369,0.887515,-9089.84,-18444.7)">
                <rect x="34311.3" y="37502.1" width="8.719" height="32.967" style="fill:rgb(152,174,186);stroke:rgb(152,174,186);stroke-width:22.76px;"/>
            </g>
        </g>
        <g transform="matrix(3.50974,0,0,0.767141,694.514,13796.8)">
            <g transform="matrix(0.211942,-0.351536,0.0839483,0.887515,-9969,-18373.6)">
                <rect x="34311.3" y="37502.1" width="8.719" height="32.967" style="fill:rgb(152,174,186);stroke:rgb(152,174,186);stroke-width:21.1px;"/>
            </g>
        </g>
    </g>
</svg>
