<?xml version="1.0" encoding="UTF-8" standalone="no"?>
<!DOCTYPE svg PUBLIC "-//W3C//DTD SVG 1.1//EN" "http://www.w3.org/Graphics/SVG/1.1/DTD/svg11.dtd">
<svg width="100%" height="100%" viewBox="0 0 3358 4668" version="1.1" xmlns="http://www.w3.org/2000/svg" xmlns:xlink="http://www.w3.org/1999/xlink" xml:space="preserve" xmlns:serif="http://www.serif.com/" style="fill-rule:evenodd;clip-rule:evenodd;stroke-linecap:round;stroke-linejoin:round;stroke-miterlimit:1.5;">
    <g transform="matrix(1,0,0,1,-16897.4,-1120.96)">
        <g transform="matrix(1.17137,0,0,0.685221,-33775.5,-19887.1)">
            <g transform="matrix(0.853699,0,0,1.45938,33023.7,29068.3)">
                <path d="M13384.8,4026.28C13384.8,4026.28 13544.8,4535.1 13594.6,4663.61C13594.6,4663.61 13615.1,4751.15 13595.4,4782.94C13595.4,4782.94 13500.7,4901.03 13494.4,5167.5C13494.4,5167.5 13485.1,5374.03 13484,5433.12C13484,5433.12 13478.7,5534.1 13454,5545.92C13454,5545.92 13392.7,5634.54 13413.1,5675.37C13413.1,5675.37 13408.8,5707.6 13489.4,5710.82C13489.4,5710.82 13625.8,5690.41 13830,5729.08C13830,5729.08 13918,5741.97 13937.4,5725.86C13956.7,5709.74 13965.3,5700.08 13930.9,5663.55C13930.9,5663.55 13890.1,5651.73 13764.4,5571.16C13764.4,5571.16 13695.7,5541.08 13676.3,5518.52C13657,5495.96 13657.9,5486.5 13659.2,5459.22C13660.5,5431.94 13690.1,5241.62 13723.6,5105.23C13723.6,5105.23 13813.6,4776.81 13844.5,4735.18C13844.5,4735.18 13875.4,4679.45 13868.7,4623.06C13868.7,4623.06 13751.8,4075.84 13688.7,4018.1L13384.8,4026.28Z" style="fill:rgb(186,202,210);"/>
            </g>
        </g>
        <g transform="matrix(1.17137,0,0,0.685221,-33775.5,-19887.1)">
            <g transform="matrix(0.853699,0,0,1.45938,29957.1,30019.7)">
                <path d="M17221.5,4821.22L17271.5,4545.92L17362,4224.17L17429.6,4056.54L17450.7,3969.72L17411.2,3821.33" style="fill:none;stroke:rgb(128,155,168);stroke-width:8.33px;"/>
            </g>
        </g>
        <g transform="matrix(1.17137,0,0,0.685221,-33775.5,-19887.1)">
            <g transform="matrix(0.853699,0,0,1.45938,32925.4,29111.5)">
                <path d="M13168.7,3965.37C13168.7,3965.37 13181.3,4450.06 13223.3,4552.87C13223.3,4552.87 13227.9,4644.93 13196.7,4663.19C13196.7,4663.19 13011.6,4774.56 12949.8,5024.33C12949.8,5024.33 12902.8,5176.07 12830.3,5244.56C12830.3,5244.56 12681.2,5268.06 12749.7,5402.34C12749.7,5402.34 12866.6,5501.71 12880,5658.83C12880,5658.83 12851.8,5724.63 13078.7,5727.31C13078.7,5727.31 13140.5,5730 13160.6,5715.23C13180.8,5700.45 13176.8,5685.68 13156.6,5657.48C13156.6,5657.48 13072,5597.06 13026.4,5576.91C13026.4,5576.91 13008.1,5571.11 13008.6,5550.61C13009,5530.11 13005.9,5447.61 12974.3,5392.16C12974.3,5392.16 12970.7,5388.42 12980,5379.62C12980,5379.62 13161.7,5064.96 13207.9,5024.14C13207.9,5024.14 13373.3,4813.58 13414.1,4758.79C13414.1,4758.79 13456,4702.39 13475.4,4675.53C13475.4,4675.53 13492.6,4673.38 13495.8,4619.67C13495.8,4619.67 13509.7,4045.59 13487.2,4015.92C13464.6,3986.25 13168.7,3965.37 13168.7,3965.37Z" style="fill:rgb(186,202,210);"/>
            </g>
        </g>
        <g transform="matrix(1.17137,0,0,0.685221,-33775.5,-19887.1)">
            <g transform="matrix(0.853699,0,0,1.45938,33015.9,29936)">
                <path d="M13630.9,2008.69C13630.9,2008.69 13596.9,2050 13601.3,2149.44C13601.3,2149.44 13602.1,2168.36 13614,2166.6C13625.9,2164.84 13742.5,2178.92 13863.5,2225.57C13863.5,2225.57 13884,2235.56 13913.7,2220.71C13913.7,2220.71 14161,2144.89 14390,2135.45C14390,2135.45 14414.9,2144.28 14436.4,2100.23C14436.4,2100.23 14723.7,1519.91 14750.6,1488.75C14777.4,1457.6 14784.4,1412.23 14925.2,1401.88C14925.2,1401.88 15043.2,1394.57 15115.4,1401.88C15115.4,1401.88 15152.5,1408.69 15203.5,1406.72C15254.5,1404.75 15297.6,1409.63 15329.9,1401.88C15362.2,1394.13 15360.2,1434.7 15347.1,1449.13C15347.1,1449.13 15337.5,1482.14 15176.6,1493.83C15176.6,1493.83 15191,1521.67 15142.9,1540.92C15142.9,1540.92 15015.4,1591.8 14970.7,1596.61C14970.7,1596.61 14919.1,1614.49 14890.2,1597.99C14890.2,1597.99 14875.1,1593.86 14868.9,1611.05C14868.9,1611.05 14744,1896.57 14729.2,1932.83C14714.4,1969.08 14644.6,2190.65 14637.9,2218.85C14631.2,2247.05 14619.4,2302.61 14542.4,2305.36C14542.4,2305.36 14119,2384.92 13916.2,2415.8C13916.2,2415.8 13777.9,2425.2 13694.7,2407.75C13694.7,2407.75 13725,3254.52 13708.6,3352.87C13692.2,3451.22 13443,3556.14 13131.6,3405.33C13131.6,3405.33 13174.2,2621.78 13229.9,2480.8C13229.9,2480.8 13197,2434.32 13175.5,2442.38C13154,2450.43 12978.7,2671.72 12748,2772.48C12748,2772.48 12735.8,2772.01 12729.7,2788.74C12729.7,2788.74 12611.5,3096.47 12546.6,3204.73C12481.7,3312.99 12415.4,3450.27 12373.3,3464.88C12373.3,3464.88 12297.6,3558.56 12029.1,3489.8C12029.1,3489.8 11981.2,3457.18 12006.2,3407.33C12006.2,3407.33 12052.8,3317.92 12075.1,3314.48C12075.1,3314.48 12099.2,3288.7 12163.7,3297.29C12163.7,3297.29 12202.3,3328.23 12287.4,3296.43C12287.4,3296.43 12329.5,3285.26 12367.3,3193.3C12367.3,3193.3 12507.7,2792.32 12529.6,2721.82C12529.6,2721.82 12543.7,2673.02 12607.3,2644.66C12607.3,2644.66 12831.2,2451.28 12875.1,2379.09C12875.1,2379.09 13006.1,2200.33 13206.4,2148.76C13206.4,2148.76 13250.2,2145.76 13291.5,2124.27C13291.5,2124.27 13317.2,1918.87 13312.9,1871.6C13308.6,1824.33 13617.2,1998.83 13630.9,2008.69Z" style="fill:rgb(186,202,210);"/>
            </g>
        </g>
        <g transform="matrix(1.17137,0,0,0.685221,-33775.5,-19887.1)">
            <g transform="matrix(0.853699,0,0,1.45938,33139.7,29984.8)">
                <path d="M13680.3,1940.32C13680.3,1940.32 13731.6,2147.35 13714.4,2191.56C13714.4,2191.56 13782.3,2010.42 13768.3,1854.08C13754.3,1697.74 13680.3,1940.32 13680.3,1940.32Z" style="fill:rgb(237,30,121);"/>
            </g>
        </g>
        <g transform="matrix(1.17137,0,0,0.685221,-33775.5,-19887.1)">
            <g transform="matrix(0.853699,0,-2.36949e-16,1.45938,29957.1,30019.7)">
                <path d="M17452.4,2107.62L17469.5,1986.2L17457.3,1894.94L17444.3,1844.42" style="fill:none;stroke:rgb(158,48,96);stroke-width:8.33px;"/>
            </g>
        </g>
        <g transform="matrix(1.17137,0,0,0.685221,-33775.5,-19887.1)">
            <g transform="matrix(0.853699,0,0,1.45938,10376.2,-12725.1)">
                <path d="M40477.7,30515.5C40477.7,30515.5 40485.1,30542.4 40488.5,30575.1C40491.8,30607.8 40479.2,30642.2 40479.2,30666.6C40479.2,30690.9 40479.2,30729.5 40487.6,30754.6C40496,30779.8 40484.3,30904.4 40474.2,30946.3C40474.2,30946.3 40400.4,31154.8 40338.3,31211.9C40338.3,31211.9 40301.4,31273.9 40221.7,31274.8C40221.7,31274.8 40056.4,31273.1 39939,31204.3C39939,31204.3 39809.8,31129.6 39784.6,31080.1C39759.4,31030.6 39604.3,30607.9 39604.3,30607.9L39683,30363.8L39804.2,30124.6L40104.1,30108.2L40289.2,30152.4L40435.1,30263.8C40435.1,30263.8 40474.1,30440.5 40475,30452.2C40475.8,30464 40466.9,30491.3 40466.9,30491.3L40477.7,30515.5Z" style="fill:rgb(186,202,210);"/>
            </g>
        </g>
        <g transform="matrix(1.17137,0,0,0.685221,-33775.5,-19887.1)">
            <g transform="matrix(0.853699,0,0,1.45938,29957.1,30019.7)">
                <path d="M17200.1,1977.62C17200.1,1977.62 17054.8,1956.82 16894.4,1840.75L16890.8,1927.73C16890.8,1927.73 16946.7,1999.7 17189.4,2014.74C17189.4,2014.74 17195.8,1983.11 17200.1,1977.62Z" style="fill:rgb(162,187,199);"/>
            </g>
        </g>
        <g transform="matrix(1.17137,0,0,0.685221,-33775.5,-19887.1)">
            <g transform="matrix(0.853699,0,0,1.45938,29957.1,30019.7)">
                <path d="M18278.9,1578.33L18359.8,1422.53L18431.5,1378.2L18545.5,1365.17L18662.9,1365.82L18767.8,1372.34L18865.6,1365.82L18923,1352.78" style="fill:none;stroke:rgb(128,155,168);stroke-width:8.33px;"/>
            </g>
        </g>
        <g transform="matrix(1.17137,0,0,0.685221,-33775.5,-19887.1)">
            <g transform="matrix(0.831694,0.0350369,0.0204956,1.42675,30361.2,29478.2)">
                <path d="M17225.3,1900.77L17140.6,1979.71" style="fill:none;stroke:rgb(128,155,168);stroke-width:8.33px;"/>
            </g>
        </g>
        <g transform="matrix(1.17137,0,0,0.685221,-33775.5,-19887.1)">
            <g transform="matrix(0.853699,0,2.66568e-17,1.45938,29957.1,30019.7)">
                <path d="M15589.2,3384.32L15763.6,3426.33L15961,3366.23L16061.5,3200.97" style="fill:none;stroke:rgb(128,155,168);stroke-width:8.33px;"/>
            </g>
        </g>
        <g transform="matrix(1.17137,0,0,0.685221,-33775.5,-19887.1)">
            <g transform="matrix(0.851006,0,0,1.45938,30066.8,30019.7)">
                <path d="M16969.9,1822.06L17225.3,1900.77L17333.3,1900.77L17369.9,1863" style="fill:none;stroke:rgb(128,155,168);stroke-width:8.35px;"/>
            </g>
        </g>
        <g transform="matrix(1.17137,0,0,0.685221,-33775.5,-19887.1)">
            <g transform="matrix(0.853699,0,0,1.45938,30021.1,30019.7)">
                <path d="M16720.6,1425.4L16836.9,1479.91L16969.9,1825.11L16969.9,1933.17" style="fill:none;stroke:rgb(128,155,168);stroke-width:8.33px;"/>
            </g>
        </g>
        <g transform="matrix(1.17137,0,0,0.685221,-33775.5,-19887.1)">
            <g transform="matrix(0.853699,0,0,1.73567,30037.4,29794.1)">
                <path d="M17035.8,885.875L16995.7,1094.44L17404.2,1072.54L17291,885.942L17035.8,885.875Z" style="fill:none;stroke:rgb(128,155,168);stroke-width:7.58px;"/>
            </g>
        </g>
        <g transform="matrix(1.17137,0,0,0.685221,-33775.5,-19887.1)">
            <g transform="matrix(0.853699,0,0,1.45938,30021.1,30019.7)">
                <path d="M17225.3,1128.11L17333.3,1527.05L17315.8,1732" style="fill:none;stroke:rgb(128,155,168);stroke-width:8.33px;"/>
            </g>
        </g>
        <g transform="matrix(1.17137,0,0,0.685221,-33775.5,-19887.1)">
            <g transform="matrix(0.372397,-1.10263,0.64501,0.636605,38522.6,46063)">
                <ellipse cx="13401.9" cy="1505.18" rx="63.965" ry="98.512" style="fill:rgb(255,129,184);"/>
            </g>
        </g>
        <g transform="matrix(1.17137,0,0,0.685221,-33775.5,-19887.1)">
            <g transform="matrix(0.853699,0,0,1.72532,30021.1,29620.5)">
                <path d="M17478.9,1500.82C17478.9,1500.82 17478.6,1544.06 17476.1,1550.42C17481.6,1565.3 17407.1,1575.29 17428.5,1531.09C17428.5,1531.09 17443.6,1509.98 17478.9,1500.82Z" style="fill:rgb(255,129,184);"/>
            </g>
        </g>
        <g transform="matrix(1.17137,0,0,0.685221,-33775.5,-19887.1)">
            <g transform="matrix(0.853699,8.10121e-17,0,1.45938,29957.1,30019.7)">
                <path d="M16455.5,4702.02L16604.2,4459.6L16788.5,4220.75L16926,4043.51L16929.1,3859.66" style="fill:none;stroke:rgb(128,155,168);stroke-width:8.33px;"/>
            </g>
        </g>
        <g transform="matrix(1.17137,0,0,0.685221,-33775.5,-19887.1)">
            <g transform="matrix(0.853699,0,-4.73898e-17,1.45938,29957.1,30019.7)">
                <path d="M15914.4,3143.56L15891.8,3205.52C15878.7,3204.4 16001.2,3327.27 16019.1,3345.81L16072.4,3258.46L15914.4,3143.56Z" style="fill:rgb(25,82,98);"/>
            </g>
        </g>
        <g transform="matrix(1.17137,0,0,0.685221,-33775.5,-19887.1)">
            <g transform="matrix(0.853699,0,0,1.45938,29957.1,30019.7)">
                <path d="M18268.6,1541.34C18268.6,1541.34 18315.6,1440.95 18321.4,1432.47C18327.3,1424 18431.6,1556.98 18451.2,1560.89C18451.2,1560.89 18456.4,1637.82 18449.2,1678.23L18439.4,1701.05L18268.6,1541.34Z" style="fill:rgb(25,82,98);"/>
            </g>
        </g>
        <g transform="matrix(1.17137,0,0,0.685221,-33775.5,-19887.1)">
            <g transform="matrix(0.853699,0,0,1.45938,29944.9,30003.1)">
                <path d="M16849.7,2014.74C16849.7,2014.74 16964.8,2006.78 17045.5,2049.75C17126.1,2092.73 17195,2073.47 17195,2073.47C17195,2073.47 17206.4,2069.19 17209.4,2076.23C17212.5,2083.27 17206.8,2094.71 17214.3,2100.87C17221.8,2107.03 17396.9,2139.08 17441.6,2163.14C17441.6,2163.14 17445.9,2166.13 17449.5,2165.59C17453.1,2165.05 17460.5,2170.11 17465,2166.14C17469.5,2162.17 17480.7,2160.12 17490.6,2158.14C17500.5,2156.16 17713.5,2102.35 17771.2,2092.99C17829,2083.64 17940,2069.47 17969.2,2072.64C17992.2,2075.14 17977.6,2076.97 17986.8,2066.04C17991.7,2060.26 17990.5,2054.65 17996.7,2055.59C18002.5,2056.46 18006.1,2058.4 18008.7,2051.82C18008.7,2051.82 18100.8,1829.08 18127.7,1800.07C18127.7,1800.07 18137.8,1795.32 18132.4,1784.58C18127.1,1773.83 18131.7,1764.13 18146.9,1764.78C18160.1,1765.35 18158,1766.55 18161,1752.8C18164.6,1735.96 18200.7,1634.63 18217.9,1607.78C18235.1,1580.92 18244.5,1569.07 18263.8,1526.1C18263.8,1526.1 18391.7,1655.99 18466.5,1687.79C18541.3,1719.59 18362.6,1927.07 18345.1,2003.61C18327.7,2080.16 18317.8,2055.54 18284.2,2130.74C18250.7,2205.94 18270.3,2205.45 18228.7,2260.51C18187.1,2315.57 18223.2,2324.35 18109.1,2346.54C17995,2368.73 17758.7,2439.69 17645.9,2444.23C17530.3,2448.89 17476.7,2454.14 17431.1,2448.77C17385.4,2443.4 17400.6,2454.37 17396.6,2490.62C17392.6,2526.88 17394.6,2484.17 17378.5,2568.77C17362.4,2653.37 17410,2791.8 17405.9,2873.71C17401.9,2955.62 17383.9,2989.34 17398.6,3083.34C17413.4,3177.34 17413.2,3270.89 17417.3,3366.23C17421.3,3461.58 17402.3,3473.26 17443.9,3569.95C17485.5,3666.64 17494.4,3708.71 17481,3761.08C17467.6,3813.45 17547.4,3926.01 17457.4,3917.96C17367.4,3909.9 17290.5,3918.14 17184.4,3922.16C17078.3,3926.19 17077.2,3910.91 16891.9,3908.23C16706.6,3905.54 16693.5,3908.38 16615.7,3885.55C16537.9,3862.72 16544.6,3900.91 16517.7,3908.97C16490.9,3917.02 16470.1,3880.57 16482.2,3800C16494.3,3719.43 16459.4,3610.5 16515.1,3457.66C16570.8,3304.81 16565.6,3334.32 16592.8,3173.67C16620,3013.03 16685.6,2947.46 16685.6,2875.33C16685.6,2803.21 16708.5,2819.6 16708.5,2678.63C16708.5,2537.65 16741.3,2465.53 16721.7,2501.59C16702,2537.65 16721.7,2550.77 16656.1,2609.78C16590.5,2668.79 16567.6,2672.07 16495.4,2714.69C16423.3,2757.31 16431.3,2742.21 16401.5,2819.6C16371,2898.59 16431.7,2793.62 16316.1,2944.18C16199.1,3096.58 16164.3,3108.11 16147.9,3180.23C16131.5,3252.36 16125,3236.29 16120.8,3269.86C16116.6,3303.43 16036.9,3259.37 15904.7,3137.68C15904.7,3137.68 15900.5,3107.05 15934.1,3039.48C15967.7,2971.92 15925.7,3034.86 15978.2,2940.44C16030.6,2846.03 16022.2,2873.3 16039,2787.28C16055.8,2701.25 16064.2,2682.37 16085.2,2652.99C16106.2,2623.62 16120.8,2592.14 16146,2571.16C16171.2,2550.18 16227.8,2515.56 16292.9,2469.4C16357.9,2423.24 16381,2393.86 16418.8,2341.41C16456.6,2288.95 16500.6,2242.79 16538.4,2213.41C16576.2,2184.04 16683.2,2087.52 16725.1,2081.23C16767.1,2074.93 16796.5,2079.13 16821.6,2066.54C16846.8,2053.95 16849.7,2014.74 16849.7,2014.74Z" style="fill:rgb(254,147,193);"/>
            </g>
        </g>
        <g transform="matrix(1.17137,0,0,0.685221,-33775.5,-19887.1)">
            <g transform="matrix(0.853699,0,0,1.45938,29957.1,30019.7)">
                <path d="M16849.7,2014.74C16849.7,2014.74 16964.8,2006.78 17045.5,2049.75C17126.1,2092.73 17195,2073.47 17195,2073.47C17195,2073.47 17206.4,2069.19 17209.4,2076.23C17212.5,2083.27 17206.8,2094.71 17214.3,2100.87C17221.8,2107.03 17396.9,2139.08 17441.6,2163.14C17441.6,2163.14 17445.9,2166.13 17449.5,2165.59C17453.1,2165.05 17460.5,2170.11 17465,2166.14C17469.5,2162.17 17480.7,2160.12 17490.6,2158.14C17500.5,2156.16 17713.5,2102.35 17771.2,2092.99C17829,2083.64 17940,2069.47 17969.2,2072.64C17992.2,2075.14 17977.6,2076.97 17986.8,2066.04C17991.7,2060.26 17990.5,2054.65 17996.7,2055.59C18002.5,2056.46 18006.1,2058.4 18008.7,2051.82C18008.7,2051.82 18100.8,1829.08 18127.7,1800.07C18127.7,1800.07 18137.8,1795.32 18132.4,1784.58C18127.1,1773.83 18131.7,1764.13 18146.9,1764.78C18160.1,1765.35 18158,1766.55 18161,1752.8C18164.6,1735.96 18200.7,1634.63 18217.9,1607.78C18235.1,1580.92 18244.5,1569.07 18263.8,1526.1C18263.8,1526.1 18391.7,1655.99 18466.5,1687.79C18541.3,1719.59 18362.6,1927.07 18345.1,2003.61C18327.7,2080.16 18317.8,2055.54 18284.2,2130.74C18250.7,2205.94 18270.3,2205.45 18228.7,2260.51C18187.1,2315.57 18223.2,2324.35 18109.1,2346.54C17995,2368.73 17758.7,2439.69 17645.9,2444.23C17530.3,2448.89 17476.7,2454.14 17431.1,2448.77C17385.4,2443.4 17400.6,2454.37 17396.6,2490.62C17392.6,2526.88 17394.6,2484.17 17378.5,2568.77C17362.4,2653.37 17410,2791.8 17405.9,2873.71C17401.9,2955.62 17383.9,2989.34 17398.6,3083.34C17413.4,3177.34 17413.2,3270.89 17417.3,3366.23C17421.3,3461.58 17402.3,3473.26 17443.9,3569.95C17485.5,3666.64 17494.4,3708.71 17481,3761.08C17467.6,3813.45 17547.4,3926.01 17457.4,3917.96C17367.4,3909.9 17290.5,3918.14 17184.4,3922.16C17078.3,3926.19 17077.2,3910.91 16891.9,3908.23C16706.6,3905.54 16693.5,3908.38 16615.7,3885.55C16537.9,3862.72 16544.6,3900.91 16517.7,3908.97C16490.9,3917.02 16470.1,3880.57 16482.2,3800C16494.3,3719.43 16459.4,3610.5 16515.1,3457.66C16570.8,3304.81 16565.6,3334.32 16592.8,3173.67C16620,3013.03 16685.6,2947.46 16685.6,2875.33C16685.6,2803.21 16708.5,2819.6 16708.5,2678.63C16708.5,2537.65 16741.3,2465.53 16721.7,2501.59C16702,2537.65 16721.7,2550.77 16656.1,2609.78C16590.5,2668.79 16567.6,2672.07 16495.4,2714.69C16423.3,2757.31 16431.3,2742.21 16401.5,2819.6C16371,2898.59 16431.7,2793.62 16316.1,2944.18C16199.1,3096.58 16164.3,3108.11 16147.9,3180.23C16131.5,3252.36 16125,3236.29 16120.8,3269.86C16116.6,3303.43 16036.9,3259.37 15904.7,3137.68C15904.7,3137.68 15900.5,3107.05 15934.1,3039.48C15967.7,2971.92 15925.7,3034.86 15978.2,2940.44C16030.6,2846.03 16022.2,2873.3 16039,2787.28C16055.8,2701.25 16064.2,2682.37 16085.2,2652.99C16106.2,2623.62 16120.8,2592.14 16146,2571.16C16171.2,2550.18 16227.8,2515.56 16292.9,2469.4C16357.9,2423.24 16381,2393.86 16418.8,2341.41C16456.6,2288.95 16500.6,2242.79 16538.4,2213.41C16576.2,2184.04 16683.2,2087.52 16725.1,2081.23C16767.1,2074.93 16796.5,2079.13 16821.6,2066.54C16846.8,2053.95 16849.7,2014.74 16849.7,2014.74Z" style="fill:rgb(255,204,226);"/>
            </g>
        </g>
        <g transform="matrix(1.17137,0,0,0.685221,-33775.5,-19887.1)">
            <g transform="matrix(0.258862,0.636399,-0.522767,0.723859,54874.8,-15839.4)">
                <path d="M32281.2,35855.7C32281.2,35855.7 31951,36165.9 32207.1,36276.3C32207.1,36276.3 32455,36331.5 32398.2,36105.8C32387,36072.6 32300,36076.5 32281.2,35855.7Z" style="fill:rgb(195,147,169);"/>
            </g>
        </g>
        <g transform="matrix(1.17137,0,0,0.685221,-33775.5,-19887.1)">
            <g transform="matrix(0.853699,0,0,1.45938,7307.95,-12623.3)">
                <path d="M43022.2,30261C42959.7,30252.3 42905.9,30222.1 42874.4,30171.8C42807.7,30065.3 42865.8,29908.5 43004.1,29821.8C43142.4,29735.1 43308.9,29751.3 43375.6,29857.8C43400.1,29896.8 43407.8,29942.6 43400.9,29989.2C43450.2,29966.7 43483.8,29954.2 43483.8,29954.2C43785.3,29924 43954.4,30112.1 43954.4,30112.1C44115.6,30262.9 44081.5,30422.8 44081.5,30422.8C44078.9,30509.3 43963.5,30462.1 43963.5,30462.1C43992.4,30338.9 43915,30256.3 43915,30256.3C43934.7,30353.3 43908.5,30455.6 43908.5,30455.6C43835.1,30491 43779.6,30461.9 43779.6,30461.9C43790.9,30253.2 43749.2,30181 43749.2,30181C43719.4,30220.5 43684.6,30464.6 43684.6,30464.6C43635.3,30480.3 43580.8,30463.5 43580.8,30463.5C43542,30428.9 43572.4,30281.3 43572.4,30281.3C43440.2,30431.5 43510.5,30593.3 43510.5,30593.3C43530.4,30654.1 43473,30715.2 43473,30715.2C43487.4,30907.7 43430,31049.1 43430,31049.1C43497.6,31419.8 43430.4,31524.4 43430.4,31524.4C43408.3,31223.6 43323.8,31087.4 43323.8,31087.4C43208.5,31117.5 43086.6,31012.7 43086.6,31012.7C42904.4,30880.3 42922.7,30534.9 42922.7,30534.9C42922.7,30396.3 42985.3,30303.6 43022.2,30261Z" style="fill:rgb(189,26,96);"/>
            </g>
        </g>
        <g transform="matrix(1.17137,0,0,0.685221,-33775.5,-19887.1)">
            <g transform="matrix(0.853699,0,0,1.45938,29957.1,30019.7)">
                <path d="M16400.1,661.855L16362,771.462L16381.6,916.146L16439,979.705L16527.5,1009.04" style="fill:none;stroke:rgb(158,48,96);stroke-width:8.33px;"/>
            </g>
        </g>
        <g transform="matrix(1.17137,0,0,0.685221,-33775.5,-19887.1)">
            <g transform="matrix(0.917632,0,0,1.46271,7786.12,-12849.9)">
                <ellipse cx="40439.6" cy="30715" rx="60.134" ry="69.783" style="fill:white;"/>
            </g>
        </g>
        <g transform="matrix(1.17137,0,0,0.685221,-33775.5,-19887.1)">
            <g transform="matrix(0.957379,0,0,1.52607,5893.5,-14801.1)">
                <path d="M40439.6,30645.2C40472.7,30645.2 40498.3,30677.5 40500.8,30715.9C40503.6,30757.9 40470.1,30789.8 40432.9,30784.8C40400,30780.3 40368.1,30748.7 40368.1,30710.2C40368.1,30671.7 40406.4,30645.2 40439.6,30645.2Z" style="fill:white;"/>
            </g>
        </g>
        <g transform="matrix(1.17137,0,0,0.685221,-33775.5,-19887.1)">
            <g transform="matrix(1.02775,0,0,1.60183,3332.9,-17077.3)">
                <ellipse cx="40442.4" cy="30675" rx="41.664" ry="56.483" style="fill:rgb(237,30,121);"/>
            </g>
        </g>
        <g transform="matrix(1.17137,0,0,0.685221,-33775.5,-19887.1)">
            <g transform="matrix(1.13464,0,0,1.60183,-1272.57,-17077.3)">
                <ellipse cx="40442.4" cy="30675" rx="41.664" ry="56.483" style="fill:rgb(237,30,121);"/>
            </g>
        </g>
        <g transform="matrix(1.17137,0,0,0.685221,-33775.5,-19887.1)">
            <g transform="matrix(1.02775,0,0,1.75692,3331.95,-21819.7)">
                <path d="M40380.1,30653.1C40380.1,30653.1 40444.7,30611.5 40479,30633C40479,30633 40483.9,30639.4 40491.3,30607.2C40490.1,30603.8 40413.1,30578.3 40380.1,30653.1Z" style="fill:rgb(0,42,54);"/>
            </g>
        </g>
        <g transform="matrix(1.17137,0,0,0.685221,-33775.5,-19887.1)">
            <g transform="matrix(1.0913,0,0,1.86557,25894.3,29457.3)">
                <circle cx="17440.3" cy="1387.35" r="14.531" style="fill:white;"/>
            </g>
            <g transform="matrix(0.67098,0,0,1.14703,33202.4,30484.3)">
                <circle cx="17440.3" cy="1387.35" r="14.531" style="fill:white;"/>
            </g>
        </g>
        <g transform="matrix(1.17137,0,0,0.685221,-33775.5,-19887.1)">
            <g transform="matrix(1.0913,0,0,1.86557,25613.7,29462.7)">
                <circle cx="17440.3" cy="1387.35" r="14.531" style="fill:white;"/>
            </g>
            <g transform="matrix(0.67098,0,0,1.14703,32932.3,30495.4)">
                <circle cx="17440.3" cy="1387.35" r="14.531" style="fill:white;"/>
            </g>
        </g>
        <g transform="matrix(1.17137,0,0,0.685221,-33775.5,-19887.1)">
            <g transform="matrix(0.853699,0,0,1.45938,33049.9,30018.9)">
                <path d="M13613.5,1373.85C13613.5,1373.85 13566.8,1325.77 13476.7,1369.56C13476.7,1369.56 13417.2,1380.03 13406.7,1333.97C13406.7,1329.2 13586.8,1289.47 13613.5,1373.85Z" style="fill:rgb(0,42,54);"/>
            </g>
        </g>
        <g transform="matrix(1.17137,0,0,0.685221,-33775.5,-19887.1)">
            <g transform="matrix(0.853699,0,0,1.45938,33060.5,30022.1)">
                <path d="M13670.1,1700.97C13666.3,1699.91 13763.8,1742.09 13812.7,1700.97C13812.7,1700.97 13821.7,1690.9 13816.4,1711.57C13816.4,1711.57 13804.2,1761.38 13748.6,1761.91C13748.6,1761.91 13706.2,1767.74 13671.7,1718.45C13671.7,1718.45 13657.9,1702.03 13670.1,1700.97Z" style="fill:rgb(237,30,121);"/>
            </g>
        </g>
        <g transform="matrix(1.17137,0,0,0.685221,-33775.5,-19887.1)">
            <g transform="matrix(0.853699,0,0,1.45938,29957.1,30019.7)">
                <path d="M17069,4839.31C17069,4839.31 17172.2,4849.16 17253.4,4839.31C17253.4,4839.31 17253,4814.11 17253.7,4798.76C17253.7,4798.76 17108.5,4813.11 17072.8,4818.12C17072.8,4818.12 17068.6,4832.47 17069,4839.31Z" style="fill:rgb(110,126,134);"/>
            </g>
        </g>
        <g transform="matrix(1.17137,0,0,0.685221,-33775.5,-19887.1)">
            <g transform="matrix(0.853699,0,0,1.45938,29957.1,30019.7)">
                <path d="M17458.4,3956.04C17458.4,3956.04 17476.6,3981.46 17449.9,4060.34C17449.9,4060.34 17419.9,4091.63 17197.6,4081.2C17197.6,4081.2 17189.8,4043.39 17189.1,4023.18C17189.1,4023.18 17349.5,3944.95 17458.4,3956.04Z" style="fill:rgb(110,126,134);"/>
            </g>
        </g>
        <g transform="matrix(1.17137,0,0,0.685221,-33775.5,-19887.1)">
            <g transform="matrix(0.853699,0,0,1.45938,29957.1,30019.7)">
                <path d="M16973,3990.23C16973,3990.23 16978.3,4036.71 16952,4056.53C16952,4056.53 16855.8,4057.78 16694.2,4010.85C16694.2,4010.85 16696.8,3982.16 16699.4,3970.17C16699.4,3970.17 16829.9,3964.92 16973,3990.23Z" style="fill:rgb(110,126,134);"/>
            </g>
        </g>
        <g transform="matrix(1.17137,0,0,0.685221,-33775.5,-19887.1)">
            <g transform="matrix(0.853699,0,0,1.45938,29957.1,30019.7)">
                <path d="M15875.2,3235.71C15875.2,3235.71 15886.2,3233.62 15892.4,3224.24C15892.4,3224.24 15939.9,3253.68 16008.7,3355.14C16008.7,3355.14 15996.7,3390.36 15946.6,3418C15946.6,3418 15891.9,3341.07 15875.2,3235.71Z" style="fill:rgb(110,126,134);"/>
            </g>
        </g>
        <g transform="matrix(1.17137,0,0,0.685221,-33775.5,-19887.1)">
            <g transform="matrix(0.853699,0,0,1.45938,29957.1,30019.7)">
                <path d="M18453.3,1554.7C18453.3,1554.7 18454.3,1541.89 18471.2,1540.61L18410.7,1361.02C18410.7,1361.02 18370.9,1372.11 18344.9,1411.87C18344.9,1411.87 18375.4,1479.15 18453.3,1554.7Z" style="fill:rgb(110,126,134);"/>
            </g>
        </g>
        <g transform="matrix(1.17137,0,0,0.685221,-33775.5,-19887.1)">
            <g transform="matrix(0.853699,0,0,1.45938,29957.1,30019.7)">
                <path d="M16308.2,4620.9C16308.2,4620.9 16372.8,4674.97 16452.4,4765.59C16452.4,4765.59 16474.9,4740.56 16484.4,4712.02C16484.4,4712.02 16363.8,4622.4 16324.2,4604.38C16324.2,4604.38 16313.2,4613.39 16308.2,4620.9Z" style="fill:rgb(110,126,134);"/>
            </g>
        </g>
        <g transform="matrix(1.17137,0,0,0.685221,-33775.5,-19887.1)">
            <g transform="matrix(0.853699,0,0,1.45938,29968.9,30134.6)">
                <circle cx="16441.7" cy="4591.34" r="5.476" style="fill:rgb(110,126,134);"/>
            </g>
            <g transform="matrix(0.853699,0,0,1.45938,30015.1,30006.8)">
                <circle cx="16441.7" cy="4591.34" r="5.476" style="fill:rgb(110,126,134);"/>
            </g>
            <g transform="matrix(0.853699,0,0,1.45938,30060.5,29887.6)">
                <circle cx="16441.7" cy="4591.34" r="5.476" style="fill:rgb(110,126,134);"/>
            </g>
            <g transform="matrix(0.853699,0,0,1.45938,30112.7,29753.2)">
                <circle cx="16441.7" cy="4591.34" r="5.476" style="fill:rgb(110,126,134);"/>
            </g>
            <g transform="matrix(0.853699,0,0,1.45938,30171.1,29622.4)">
                <circle cx="16441.7" cy="4591.34" r="5.476" style="fill:rgb(110,126,134);"/>
            </g>
            <g transform="matrix(0.853699,0,0,1.45938,30225.4,29502.3)">
                <circle cx="16441.7" cy="4591.34" r="5.476" style="fill:rgb(110,126,134);"/>
            </g>
            <g transform="matrix(0.853699,0,0,1.45938,30272.7,29391.7)">
                <circle cx="16441.7" cy="4591.34" r="5.476" style="fill:rgb(110,126,134);"/>
            </g>
            <g transform="matrix(0.853699,0,0,1.45938,30322.8,29282.3)">
                <circle cx="16441.7" cy="4591.34" r="5.476" style="fill:rgb(110,126,134);"/>
            </g>
            <g transform="matrix(0.853699,0,0,1.45938,30358.2,29102.7)">
                <circle cx="16441.7" cy="4591.34" r="5.476" style="fill:rgb(110,126,134);"/>
            </g>
            <g transform="matrix(0.853699,0,0,1.45938,29245.5,28239.8)">
                <circle cx="16441.7" cy="4591.34" r="5.476" style="fill:rgb(110,126,134);"/>
            </g>
            <g transform="matrix(0.853699,0,0,1.45938,29304.5,28263.5)">
                <circle cx="16441.7" cy="4591.34" r="5.476" style="fill:rgb(110,126,134);"/>
            </g>
            <g transform="matrix(0.853699,0,0,1.45938,29373.5,28294.9)">
                <circle cx="16441.7" cy="4591.34" r="5.476" style="fill:rgb(110,126,134);"/>
            </g>
            <g transform="matrix(0.853699,0,0,1.45938,29438.1,28262.6)">
                <circle cx="16441.7" cy="4591.34" r="5.476" style="fill:rgb(110,126,134);"/>
            </g>
            <g transform="matrix(0.853699,0,0,1.45938,31595.5,25445.7)">
                <circle cx="16441.7" cy="4591.34" r="5.476" style="fill:rgb(110,126,134);"/>
            </g>
            <g transform="matrix(0.853699,0,0,1.45938,31661.1,25357.7)">
                <circle cx="16441.7" cy="4591.34" r="5.476" style="fill:rgb(110,126,134);"/>
            </g>
            <g transform="matrix(0.853699,0,0,1.45938,31768.6,25337.7)">
                <circle cx="16441.7" cy="4591.34" r="5.476" style="fill:rgb(110,126,134);"/>
            </g>
            <g transform="matrix(0.853699,0,0,1.45938,31872.4,25340.7)">
                <circle cx="16441.7" cy="4591.34" r="5.476" style="fill:rgb(110,126,134);"/>
            </g>
            <g transform="matrix(0.853699,0,0,1.45938,31982.8,25342.7)">
                <circle cx="16441.7" cy="4591.34" r="5.476" style="fill:rgb(110,126,134);"/>
            </g>
            <g transform="matrix(0.853699,0,0,1.45938,32074.2,25314.9)">
                <circle cx="16441.7" cy="4591.34" r="5.476" style="fill:rgb(110,126,134);"/>
            </g>
            <g transform="matrix(0.853699,0,0,1.45938,30769.1,25552.3)">
                <circle cx="16441.7" cy="4591.34" r="5.476" style="fill:rgb(110,126,134);"/>
            </g>
            <g transform="matrix(0.853699,0,0,1.45938,30768.4,25593.1)">
                <circle cx="16441.7" cy="4591.34" r="5.476" style="fill:rgb(110,126,134);"/>
            </g>
            <g transform="matrix(0.853699,0,0,1.45938,30767.1,25637.6)">
                <circle cx="16441.7" cy="4591.34" r="5.476" style="fill:rgb(110,126,134);"/>
            </g>
        </g>
        <g transform="matrix(1.17137,0,0,0.685221,-33775.5,-19887.1)">
            <g transform="matrix(0.853699,0,0,1.45938,30243.1,25940.8)">
                <circle cx="16441.7" cy="4591.34" r="5.476" style="fill:rgb(119,35,71);"/>
            </g>
            <g transform="matrix(0.853699,0,0,1.45938,30164.7,25905.5)">
                <circle cx="16441.7" cy="4591.34" r="5.476" style="fill:rgb(119,35,71);"/>
            </g>
            <g transform="matrix(0.853699,0,0,1.45938,30083.4,25826.3)">
                <circle cx="16441.7" cy="4591.34" r="5.476" style="fill:rgb(119,35,71);"/>
            </g>
            <g transform="matrix(0.853699,0,0,1.45938,30038.5,25714.3)">
                <circle cx="16441.7" cy="4591.34" r="5.476" style="fill:rgb(119,35,71);"/>
            </g>
            <g transform="matrix(0.853699,0,0,1.45938,30005.1,25609.3)">
                <circle cx="16441.7" cy="4591.34" r="5.476" style="fill:rgb(119,35,71);"/>
            </g>
            <g transform="matrix(0.853699,0,0,1.45938,29977.5,25506.8)">
                <circle cx="16441.7" cy="4591.34" r="5.476" style="fill:rgb(119,35,71);"/>
            </g>
            <g transform="matrix(0.853699,0,0,1.45938,29976.1,25404.5)">
                <circle cx="16441.7" cy="4591.34" r="5.476" style="fill:rgb(119,35,71);"/>
            </g>
            <g transform="matrix(0.853699,0,0,1.45938,29974.7,25301.1)">
                <circle cx="16441.7" cy="4591.34" r="5.476" style="fill:rgb(119,35,71);"/>
            </g>
            <g transform="matrix(0.853699,0,0,1.45938,29995.6,25177.4)">
                <circle cx="16441.7" cy="4591.34" r="5.476" style="fill:rgb(119,35,71);"/>
            </g>
            <g transform="matrix(0.853699,0,0,1.45938,30168.1,24654.8)">
                <circle cx="16441.7" cy="4591.34" r="5.476" style="fill:rgb(119,35,71);"/>
            </g>
            <g transform="matrix(0.853699,0,0,1.45938,30157.4,24832.1)">
                <circle cx="16441.7" cy="4591.34" r="5.476" style="fill:rgb(119,35,71);"/>
            </g>
            <g transform="matrix(0.853699,0,0,1.45938,30137,25027)">
                <circle cx="16441.7" cy="4591.34" r="5.476" style="fill:rgb(119,35,71);"/>
            </g>
            <g transform="matrix(0.853699,0,0,1.45938,30124,25224.9)">
                <circle cx="16441.7" cy="4591.34" r="5.476" style="fill:rgb(119,35,71);"/>
            </g>
            <g transform="matrix(0.853699,0,0,1.45938,30130.7,25424.3)">
                <circle cx="16441.7" cy="4591.34" r="5.476" style="fill:rgb(119,35,71);"/>
            </g>
            <g transform="matrix(0.853699,0,0,1.45938,30147.2,25594)">
                <circle cx="16441.7" cy="4591.34" r="5.476" style="fill:rgb(119,35,71);"/>
            </g>
            <g transform="matrix(0.853699,0,0,1.45938,30179.3,25734)">
                <circle cx="16441.7" cy="4591.34" r="5.476" style="fill:rgb(119,35,71);"/>
            </g>
            <g transform="matrix(0.853699,0,0,1.45938,30247.4,25833)">
                <circle cx="16441.7" cy="4591.34" r="5.476" style="fill:rgb(119,35,71);"/>
            </g>
            <g transform="matrix(0.853699,0,0,1.45938,30274.1,25685.3)">
                <circle cx="16441.7" cy="4591.34" r="5.476" style="fill:rgb(119,35,71);"/>
            </g>
            <g transform="matrix(0.853699,0,0,1.45938,30261.6,25498.8)">
                <circle cx="16441.7" cy="4591.34" r="5.476" style="fill:rgb(119,35,71);"/>
            </g>
            <g transform="matrix(0.853699,0,0,1.45938,30254.5,25284.2)">
                <circle cx="16441.7" cy="4591.34" r="5.476" style="fill:rgb(119,35,71);"/>
            </g>
            <g transform="matrix(0.853699,0,0,1.45938,30251.8,25095.5)">
                <circle cx="16441.7" cy="4591.34" r="5.476" style="fill:rgb(119,35,71);"/>
            </g>
            <g transform="matrix(0.853699,0,0,1.45938,30246,24883.9)">
                <circle cx="16441.7" cy="4591.34" r="5.476" style="fill:rgb(119,35,71);"/>
            </g>
            <g transform="matrix(0.853699,0,0,1.45938,30245.6,24681.4)">
                <circle cx="16441.7" cy="4591.34" r="5.476" style="fill:rgb(119,35,71);"/>
            </g>
            <g transform="matrix(0.853699,0,0,1.45938,30309,24486.9)">
                <circle cx="16441.7" cy="4591.34" r="5.476" style="fill:rgb(119,35,71);"/>
            </g>
            <g transform="matrix(0.853699,0,0,1.45938,30402.5,24409.3)">
                <circle cx="16441.7" cy="4591.34" r="5.476" style="fill:rgb(119,35,71);"/>
            </g>
            <g transform="matrix(0.853699,0,0,1.45938,30459.1,24459.5)">
                <circle cx="16441.7" cy="4591.34" r="5.476" style="fill:rgb(119,35,71);"/>
            </g>
            <g transform="matrix(0.853699,0,0,1.45938,30508.9,24550.1)">
                <circle cx="16441.7" cy="4591.34" r="5.476" style="fill:rgb(119,35,71);"/>
            </g>
            <g transform="matrix(0.853699,0,0,1.45938,30552.6,24659.7)">
                <circle cx="16441.7" cy="4591.34" r="5.476" style="fill:rgb(119,35,71);"/>
            </g>
            <g transform="matrix(0.853699,0,0,1.45938,30554.8,24805)">
                <circle cx="16441.7" cy="4591.34" r="5.476" style="fill:rgb(119,35,71);"/>
            </g>
            <g transform="matrix(0.853699,0,0,1.45938,30530.3,24963.3)">
                <circle cx="16441.7" cy="4591.34" r="5.476" style="fill:rgb(119,35,71);"/>
            </g>
            <g transform="matrix(0.853699,0,0,1.45938,30515.6,25129.3)">
                <circle cx="16441.7" cy="4591.34" r="5.476" style="fill:rgb(119,35,71);"/>
            </g>
            <g transform="matrix(0.853699,0,0,1.45938,30736.4,25119.4)">
                <circle cx="16441.7" cy="4591.34" r="5.476" style="fill:rgb(119,35,71);"/>
            </g>
            <g transform="matrix(0.853699,0,0,1.45938,30894.9,25096.5)">
                <circle cx="16441.7" cy="4591.34" r="5.476" style="fill:rgb(119,35,71);"/>
            </g>
            <g transform="matrix(0.853699,0,0,1.45938,30899.6,24954.9)">
                <circle cx="16441.7" cy="4591.34" r="5.476" style="fill:rgb(119,35,71);"/>
            </g>
            <g transform="matrix(0.853699,0,0,1.45938,30747.6,24951.9)">
                <circle cx="16441.7" cy="4591.34" r="5.476" style="fill:rgb(119,35,71);"/>
            </g>
            <g transform="matrix(0.853699,0,0,1.45938,30730.6,24786)">
                <circle cx="16441.7" cy="4591.34" r="5.476" style="fill:rgb(119,35,71);"/>
            </g>
            <g transform="matrix(0.853699,0,0,1.45938,30707.5,24644.5)">
                <circle cx="16441.7" cy="4591.34" r="5.476" style="fill:rgb(119,35,71);"/>
            </g>
            <g transform="matrix(0.853699,0,0,1.45938,30668.3,24521.9)">
                <circle cx="16441.7" cy="4591.34" r="5.476" style="fill:rgb(119,35,71);"/>
            </g>
            <g transform="matrix(0.853699,0,0,1.45938,30566.4,24449.6)">
                <circle cx="16441.7" cy="4591.34" r="5.476" style="fill:rgb(119,35,71);"/>
            </g>
            <g transform="matrix(0.853699,0,0,1.45938,30474.6,24397.9)">
                <circle cx="16441.7" cy="4591.34" r="5.476" style="fill:rgb(119,35,71);"/>
            </g>
            <g transform="matrix(0.853699,0,0,1.45938,30351,24558.2)">
                <circle cx="16441.7" cy="4591.34" r="5.476" style="fill:rgb(119,35,71);"/>
            </g>
            <g transform="matrix(0.853699,0,0,1.45938,30363.9,24734.4)">
                <circle cx="16441.7" cy="4591.34" r="5.476" style="fill:rgb(119,35,71);"/>
            </g>
            <g transform="matrix(0.853699,0,0,1.45938,30369,24896.7)">
                <circle cx="16441.7" cy="4591.34" r="5.476" style="fill:rgb(119,35,71);"/>
            </g>
            <g transform="matrix(0.853699,0,0,1.45938,30363.2,25129.6)">
                <circle cx="16441.7" cy="4591.34" r="5.476" style="fill:rgb(119,35,71);"/>
            </g>
            <g transform="matrix(0.853699,0,0,1.45938,30371.2,25322.9)">
                <circle cx="16441.7" cy="4591.34" r="5.476" style="fill:rgb(119,35,71);"/>
            </g>
            <g transform="matrix(0.853699,0,0,1.45938,30357.8,25548.2)">
                <circle cx="16441.7" cy="4591.34" r="5.476" style="fill:rgb(119,35,71);"/>
            </g>
            <g transform="matrix(0.853699,0,0,1.45938,30338.7,25771.2)">
                <circle cx="16441.7" cy="4591.34" r="5.476" style="fill:rgb(119,35,71);"/>
            </g>
            <g transform="matrix(0.853699,0,0,1.45938,30335.1,26008.6)">
                <circle cx="16441.7" cy="4591.34" r="5.476" style="fill:rgb(119,35,71);"/>
            </g>
            <g transform="matrix(0.853699,0,0,1.45938,30336.9,26186.7)">
                <circle cx="16441.7" cy="4591.34" r="5.476" style="fill:rgb(119,35,71);"/>
            </g>
            <g transform="matrix(0.853699,0,0,1.45938,30364.1,26379.3)">
                <circle cx="16441.7" cy="4591.34" r="5.476" style="fill:rgb(119,35,71);"/>
            </g>
            <g transform="matrix(0.853699,0,0,1.45938,30363.2,26520.8)">
                <circle cx="16441.7" cy="4591.34" r="5.476" style="fill:rgb(119,35,71);"/>
            </g>
            <g transform="matrix(0.853699,0,0,1.45938,30022,25051.3)">
                <circle cx="16441.7" cy="4591.34" r="5.476" style="fill:rgb(119,35,71);"/>
            </g>
            <g transform="matrix(0.853699,0,0,1.45938,30051.9,24926.5)">
                <circle cx="16441.7" cy="4591.34" r="5.476" style="fill:rgb(119,35,71);"/>
            </g>
            <g transform="matrix(0.853699,0,0,1.45938,30088.1,24802.8)">
                <circle cx="16441.7" cy="4591.34" r="5.476" style="fill:rgb(119,35,71);"/>
            </g>
            <g transform="matrix(0.853699,0,0,1.45938,30028.5,24762.8)">
                <circle cx="16441.7" cy="4591.34" r="5.476" style="fill:rgb(119,35,71);"/>
            </g>
            <g transform="matrix(0.853699,0,0,1.45938,29967.9,24726.7)">
                <circle cx="16441.7" cy="4591.34" r="5.476" style="fill:rgb(119,35,71);"/>
            </g>
            <g transform="matrix(0.853699,0,0,1.45938,29928.9,24652.5)">
                <circle cx="16441.7" cy="4591.34" r="5.476" style="fill:rgb(119,35,71);"/>
            </g>
            <g transform="matrix(0.853699,0,0,1.45938,29915,24546.9)">
                <circle cx="16441.7" cy="4591.34" r="5.476" style="fill:rgb(119,35,71);"/>
            </g>
            <g transform="matrix(0.853699,0,0,1.45938,29907.2,24447)">
                <circle cx="16441.7" cy="4591.34" r="5.476" style="fill:rgb(119,35,71);"/>
            </g>
            <g transform="matrix(0.853699,0,0,1.45938,29928.4,24336.6)">
                <circle cx="16441.7" cy="4591.34" r="5.476" style="fill:rgb(119,35,71);"/>
            </g>
            <g transform="matrix(0.853699,0,0,1.45938,29973.4,24270)">
                <circle cx="16441.7" cy="4591.34" r="5.476" style="fill:rgb(119,35,71);"/>
            </g>
            <g transform="matrix(0.853699,0,0,1.45938,29979,24354.7)">
                <circle cx="16441.7" cy="4591.34" r="5.476" style="fill:rgb(119,35,71);"/>
            </g>
            <g transform="matrix(0.853699,0,0,1.45938,30008.5,24462.2)">
                <circle cx="16441.7" cy="4591.34" r="5.476" style="fill:rgb(119,35,71);"/>
            </g>
            <g transform="matrix(0.853699,0,0,1.45938,30045.8,24552.6)">
                <circle cx="16441.7" cy="4591.34" r="5.476" style="fill:rgb(119,35,71);"/>
            </g>
            <g transform="matrix(0.853699,0,0,1.45938,30094.8,24647.7)">
                <circle cx="16441.7" cy="4591.34" r="5.476" style="fill:rgb(119,35,71);"/>
            </g>
            <g transform="matrix(0.853699,0,0,1.45938,30186,24537.4)">
                <circle cx="16441.7" cy="4591.34" r="5.476" style="fill:rgb(119,35,71);"/>
            </g>
            <g transform="matrix(0.853699,0,0,1.45938,30163.2,24400.4)">
                <circle cx="16441.7" cy="4591.34" r="5.476" style="fill:rgb(119,35,71);"/>
            </g>
            <g transform="matrix(0.853699,0,0,1.45938,30125.9,24299.5)">
                <circle cx="16441.7" cy="4591.34" r="5.476" style="fill:rgb(119,35,71);"/>
            </g>
            <g transform="matrix(0.853699,0,0,1.45938,30075.3,24221.5)">
                <circle cx="16441.7" cy="4591.34" r="5.476" style="fill:rgb(119,35,71);"/>
            </g>
            <g transform="matrix(0.853699,0,0,1.45938,30032.4,24182.5)">
                <circle cx="16441.7" cy="4591.34" r="5.476" style="fill:rgb(119,35,71);"/>
            </g>
            <g transform="matrix(0.853699,0,0,1.45938,30137.6,24125.4)">
                <circle cx="16441.7" cy="4591.34" r="5.476" style="fill:rgb(119,35,71);"/>
            </g>
            <g transform="matrix(0.853699,0,0,1.45938,30216.1,24166.3)">
                <circle cx="16441.7" cy="4591.34" r="5.476" style="fill:rgb(119,35,71);"/>
            </g>
            <g transform="matrix(0.853699,0,0,1.45938,30282.3,24230.1)">
                <circle cx="16441.7" cy="4591.34" r="5.476" style="fill:rgb(119,35,71);"/>
            </g>
            <g transform="matrix(0.853699,0,0,1.45938,30296.2,24329)">
                <circle cx="16441.7" cy="4591.34" r="5.476" style="fill:rgb(119,35,71);"/>
            </g>
            <g transform="matrix(0.853699,0,0,1.45938,30302.9,24439.4)">
                <circle cx="16441.7" cy="4591.34" r="5.476" style="fill:rgb(119,35,71);"/>
            </g>
        </g>
        <g transform="matrix(1.17137,0,0,0.685221,-33775.5,-19887.1)">
            <g transform="matrix(0.853699,0,0,1.45938,30486.3,26012.1)">
                <circle cx="16441.7" cy="4591.34" r="5.476" style="fill:rgb(110,126,134);"/>
            </g>
            <g transform="matrix(0.853699,0,0,1.45938,30572.7,26058.2)">
                <circle cx="16441.7" cy="4591.34" r="5.476" style="fill:rgb(110,126,134);"/>
            </g>
            <g transform="matrix(0.853699,0,0,1.45938,30658.6,26100.7)">
                <circle cx="16441.7" cy="4591.34" r="5.476" style="fill:rgb(110,126,134);"/>
            </g>
            <g transform="matrix(0.853699,0,0,1.45938,30697.9,26114.8)">
                <circle cx="16441.7" cy="4591.34" r="5.476" style="fill:rgb(110,126,134);"/>
            </g>
            <g transform="matrix(0.853699,0,0,1.45938,30772.4,26114.8)">
                <circle cx="16441.7" cy="4591.34" r="5.476" style="fill:rgb(110,126,134);"/>
            </g>
            <g transform="matrix(0.853699,0,0,1.45938,30454.4,25980.3)">
                <circle cx="16441.7" cy="4591.34" r="5.476" style="fill:rgb(110,126,134);"/>
            </g>
            <g transform="matrix(0.853699,0,0,1.45938,30429.9,25858.1)">
                <circle cx="16441.7" cy="4591.34" r="5.476" style="fill:rgb(110,126,134);"/>
            </g>
            <g transform="matrix(0.853699,0,0,1.45938,30401.4,25745.5)">
                <circle cx="16441.7" cy="4591.34" r="5.476" style="fill:rgb(110,126,134);"/>
            </g>
            <g transform="matrix(0.853699,0,0,1.45938,30592,24961.3)">
                <circle cx="16441.7" cy="4591.34" r="5.476" style="fill:rgb(110,126,134);"/>
            </g>
            <g transform="matrix(0.853699,0,0,1.45938,30641.8,24958)">
                <circle cx="16441.7" cy="4591.34" r="5.476" style="fill:rgb(110,126,134);"/>
            </g>
            <g transform="matrix(0.853699,0,0,1.45938,30783.2,24945.8)">
                <circle cx="16441.7" cy="4591.34" r="5.476" style="fill:rgb(110,126,134);"/>
            </g>
            <g transform="matrix(0.853699,0,0,1.45938,30457.1,26100.8)">
                <circle cx="16441.7" cy="4591.34" r="5.476" style="fill:rgb(110,126,134);"/>
            </g>
            <g transform="matrix(0.853699,0,0,1.45938,29495.4,28235)">
                <circle cx="16441.7" cy="4591.34" r="5.476" style="fill:rgb(110,126,134);"/>
            </g>
            <g transform="matrix(0.853699,0,0,1.45938,30768,29298.2)">
                <circle cx="16441.7" cy="4591.34" r="5.476" style="fill:rgb(110,126,134);"/>
            </g>
            <g transform="matrix(0.853699,0,0,1.45938,30793.7,29068.7)">
                <circle cx="16441.7" cy="4591.34" r="5.476" style="fill:rgb(110,126,134);"/>
            </g>
            <g transform="matrix(0.853699,0,0,1.45938,30735.3,29449.3)">
                <circle cx="16441.7" cy="4591.34" r="5.476" style="fill:rgb(110,126,134);"/>
            </g>
            <g transform="matrix(0.853699,0,0,1.45938,30705.4,29616.9)">
                <circle cx="16441.7" cy="4591.34" r="5.476" style="fill:rgb(110,126,134);"/>
            </g>
            <g transform="matrix(0.853699,0,0,1.45938,30678.9,29783.4)">
                <circle cx="16441.7" cy="4591.34" r="5.476" style="fill:rgb(110,126,134);"/>
            </g>
            <g transform="matrix(0.853699,0,0,1.45938,30649,29960.6)">
                <circle cx="16441.7" cy="4591.34" r="5.476" style="fill:rgb(110,126,134);"/>
            </g>
            <g transform="matrix(0.853699,0,0,1.45938,30628.8,30135.4)">
                <circle cx="16441.7" cy="4591.34" r="5.476" style="fill:rgb(110,126,134);"/>
            </g>
            <g transform="matrix(0.853699,0,0,1.45938,30613.5,30307.9)">
                <circle cx="16441.7" cy="4591.34" r="5.476" style="fill:rgb(110,126,134);"/>
            </g>
        </g>
        <g transform="matrix(1.17137,0,0,0.685221,-33775.5,-19887.1)">
            <g transform="matrix(0.853699,0,0,1.45938,29957.1,30019.7)">
                <path d="M16496.9,1038.74L16657.4,896.95L16777.2,818.585L16868.5,771.462" style="fill:none;stroke:rgb(158,48,96);stroke-width:8.33px;"/>
            </g>
        </g>
        <g transform="matrix(1.17137,0,0,0.685221,-33775.5,-19887.1)">
            <g transform="matrix(0.853699,0,0,1.45938,29957.1,30019.7)">
                <path d="M16989.1,732.341L17249.2,818.585L17320.1,945.605L17347.2,1120.13L17336.1,1233.67" style="fill:none;stroke:rgb(158,48,96);stroke-width:8.33px;"/>
            </g>
        </g>
        <g transform="matrix(1.17137,0,0,0.685221,-33775.5,-19887.1)">
            <g transform="matrix(0.853699,0,0,1.45938,29957.1,30019.7)">
                <path d="M17149.2,748.238L17250.9,782.137L17347.2,833.636L17453.3,934.352L17509.7,1023.01L17533.9,1120.13L17521.5,1245.3" style="fill:none;stroke:rgb(158,48,96);stroke-width:8.33px;"/>
            </g>
        </g>
        <g transform="matrix(1.17137,0,0,0.685221,-33775.5,-19887.1)">
            <g transform="matrix(0.853699,0,0,1.45938,29957.1,30019.7)">
                <path d="M16935,748.238L17025.9,798.313L17118.6,905.099L17119.6,1013.23L17086,1144.63L17077.4,1245.3" style="fill:none;stroke:rgb(158,48,96);stroke-width:8.33px;"/>
            </g>
        </g>
        <g transform="matrix(1.17137,0,0,0.685221,-33775.5,-19887.1)">
            <g transform="matrix(0.853699,0,0,1.45938,29957.1,30019.7)">
                <path d="M16610.6,937.559L16523.6,1109.18L16439,1321.75L16441.5,1503.29L16538.5,1707.2L16682.7,1791.75L16782.2,1814.13" style="fill:none;stroke:rgb(158,48,96);stroke-width:8.33px;"/>
            </g>
        </g>
        <g transform="matrix(1.17137,0,0,0.685221,-33775.5,-19887.1)">
            <g transform="matrix(0.853699,0,0,1.45938,29957.1,30019.7)">
                <path d="M16664.9,895.159L16650.9,1038.74L16624.2,1204.22L16610.6,1331.54L16629.3,1497.06L16654.8,1632.02L16733.7,1716.05L16782.2,1749.16" style="fill:none;stroke:rgb(158,48,96);stroke-width:8.33px;"/>
            </g>
        </g>
        <g transform="matrix(1.17137,0,0,0.685221,-33775.5,-19887.1)">
            <g transform="matrix(0.853699,0,0,1.45938,29957.1,30019.7)">
                <path d="M16765.5,831.167L16752.8,996.771L16761.7,1167.3L16766.8,1375.22L16782.2,1554.36L16801.2,1658.76" style="fill:none;stroke:rgb(158,48,96);stroke-width:8.33px;"/>
            </g>
        </g>
        <g transform="matrix(1.17137,0,0,0.685221,-33775.5,-19887.1)">
            <g transform="matrix(0.853699,0,0,1.45938,29957.1,30019.7)">
                <path d="M16903,2259.04L16905,2111.82L16868.5,1970.58L16868.5,1684.1L16893.1,1522.96L16911,1425.4L16897.1,1319.45L16899.1,1168.85L16899.1,1038.74L16868.5,831.167L16808.3,802.671" style="fill:none;stroke:rgb(158,48,96);stroke-width:8.33px;"/>
            </g>
        </g>
        <g transform="matrix(1.17137,0,0,0.685221,-33775.5,-19887.1)">
            <g transform="matrix(0.853699,0,0,1.45938,29957.1,30019.7)">
                <path d="M16444.7,625.242L16444.7,720.58L16496.9,812.659L16563.3,905.099L16610.6,937.559" style="fill:none;stroke:rgb(158,48,96);stroke-width:8.33px;"/>
            </g>
        </g>
        <g transform="matrix(1.17137,0,0,0.685221,-33775.5,-19887.1)">
            <g transform="matrix(0.853699,0,0,1.45938,29957.1,30019.7)">
                <path d="M16496.9,591.018L16595.9,651.317L16655.4,722.21L16682.7,797.177L16694.8,871.819" style="fill:none;stroke:rgb(158,48,96);stroke-width:8.33px;"/>
            </g>
        </g>
        <g transform="matrix(1.17137,0,0,0.685221,-33775.5,-19887.1)">
            <g transform="matrix(0.853699,0,0,1.45938,29957.1,30019.7)">
                <path d="M16595.7,555.979L16702.7,571.461L16806.1,625.242L16823.2,661.855L16831.4,755.619L16824.9,792.288" style="fill:none;stroke:rgb(158,48,96);stroke-width:8.33px;"/>
            </g>
        </g>
        <g transform="matrix(1.17137,0,0,0.685221,-33775.5,-19887.1)">
            <g transform="matrix(0.298302,0.73336,-0.280448,0.388328,44520.9,-6372.61)">
                <path d="M32133,36114.4C32133,36114.4 32145.2,37034.9 32229.5,37075.2C32313.7,37034.9 32325.9,36114.4 32325.9,36114.4L32133,36114.4" style="fill:rgb(195,147,169);"/>
            </g>
        </g>
        <g transform="matrix(1.17137,0,0,0.685221,-33775.5,-19887.1)">
            <g transform="matrix(0.853699,0,0,1.45938,28834.1,29022.9)">
                <g transform="matrix(1.28334,0,0,1.28334,-5207.71,-991.578)">
                    <g transform="matrix(1,0,0,1,1472.97,321.406)">
                        <path d="M16885.3,2867.03C16907.9,2871.85 16930.6,2876.66 16953.2,2881.48C16963.7,2883.7 16973.7,2887.47 16983.3,2892.16C16996,2898.38 17007.9,2906.2 17019,2914.97C17029.1,2922.96 17038.8,2931.96 17045.9,2942.71C17051.1,2950.37 17054.7,2958.99 17056,2968.14C17056.5,2972 17056.7,2975.91 17056.3,2979.8C17055.3,2991.39 17050.1,3002.04 17042.4,3010.68C17039,3014.52 17035.2,3017.99 17031.1,3021.14C17010.7,3036.98 16984.7,3044.63 16959.4,3047.66C16955.9,3048.08 16952.3,3048.51 16948.7,3048.93C16946.1,3074.81 16941.2,3100.49 16933.6,3125.38C16915.5,3126.96 16897.4,3128.53 16879.4,3130.11C16882.1,3112.97 16883.8,3095.66 16885.1,3078.35C16886.5,3058.17 16887.3,3037.94 16887.7,3017.72C16888.7,2967.49 16887.4,2917.22 16885.3,2867.03ZM16948.2,2938.16C16950.3,2959.64 16951.4,2981.22 16951.2,3002.8C16962,3001.78 16973.7,2999.89 16982.6,2993.19C16989.7,2987.9 16992.4,2979.3 16991.8,2970.7C16991.1,2961.55 16987.4,2952.4 16979.7,2946.97C16976.1,2944.38 16971.9,2942.62 16967.6,2941.33C16961.3,2939.44 16954.8,2938.55 16948.2,2938.16Z" style="fill:rgb(189,26,96);fill-rule:nonzero;"/>
                    </g>
                </g>
            </g>
        </g>
    </g>
</svg>
