<?xml version="1.0" encoding="UTF-8" standalone="no"?>
<!DOCTYPE svg PUBLIC "-//W3C//DTD SVG 1.1//EN" "http://www.w3.org/Graphics/SVG/1.1/DTD/svg11.dtd">
<svg width="100%" height="100%" viewBox="0 0 7012 4097" version="1.1" xmlns="http://www.w3.org/2000/svg" xmlns:xlink="http://www.w3.org/1999/xlink" xml:space="preserve" xmlns:serif="http://www.serif.com/" style="fill-rule:evenodd;clip-rule:evenodd;stroke-linejoin:round;stroke-miterlimit:2;">
    <g transform="matrix(1,0,0,1,-13027.6,-693.444)">
        <g transform="matrix(2.0594,0,0,1.64441,-13175,-713.066)">
            <g transform="matrix(0.791271,0,0,0.608123,2609.88,368.313)">
                <path d="M12852.5,3346.14C12873.7,3293.6 12873.7,3225.5 12852.5,3172.96C12806.6,3059.96 12781.4,2936.35 12781.4,2806.85C12781.4,2507.18 12916.7,2239.06 13129.1,2060.98C13195.8,2005.21 13237.7,1893.39 13237.7,1771.32C13237.7,1771.32 13237.7,1771.32 13237.7,1771.32C13237.7,1235.7 13669.9,800.853 14202.4,800.853C14553.7,800.853 14861.4,990.203 15030.1,1272.91C15045.8,1299.22 15067.5,1313.51 15090,1312.23C15107.9,1311.23 15125.9,1310.72 15144,1310.72C15388.2,1310.72 15611.3,1402.21 15781.4,1552.95C15850.2,1613.92 15930.8,1629.27 16006.4,1595.79C16101.1,1553.67 16205.8,1530.29 16315.9,1530.29C16739.8,1530.29 17084.1,1877.11 17084.1,2304.29C17084.1,2511.37 17003.2,2699.56 16871.5,2838.52C16844.1,2867.49 16825.1,2913.61 16819.1,2966.04C16813.2,3018.48 16820.7,3072.61 16839.9,3115.72C16900.9,3251.4 16934.7,3401.54 16934.7,3559.42C16934.7,4165.17 16436.5,4656.97 15822.7,4656.97C15618.5,4656.97 15427,4602.49 15262.5,4507.48C15216.2,4480.68 15164.6,4499.36 15129.7,4555.56C15003,4759.57 14761.7,4897.53 14485,4897.53C14283.3,4897.53 14100.3,4824.15 13966.9,4705.29C13939.1,4680.64 13907.5,4669.75 13876,4673.99C13833.5,4679.73 13790.1,4682.71 13746.1,4682.71C13213.6,4682.71 12781.4,4247.86 12781.4,3712.24C12781.4,3582.74 12806.6,3459.14 12852.5,3346.14Z" style="fill:rgb(195,147,169);"/>
            </g>
        </g>
    </g>
</svg>
