<?xml version="1.0" encoding="UTF-8" standalone="no"?>
<!DOCTYPE svg PUBLIC "-//W3C//DTD SVG 1.1//EN" "http://www.w3.org/Graphics/SVG/1.1/DTD/svg11.dtd">
<svg width="100%" height="100%" viewBox="0 0 4661 1601" version="1.1" xmlns="http://www.w3.org/2000/svg" xmlns:xlink="http://www.w3.org/1999/xlink" xml:space="preserve" xmlns:serif="http://www.serif.com/" style="fill-rule:evenodd;clip-rule:evenodd;stroke-linejoin:round;stroke-miterlimit:2;">
    <g transform="matrix(1,0,0,1,-41596.9,-16645.8)">
        <g transform="matrix(0.702425,0,0,0.288503,13446.9,12907.8)">
            <g transform="matrix(2.18431,0,0,5.3182,-51235.1,-68818.5)">
                <path d="M41846.4,15419.9L41930.8,15419.9L41930.8,15705.8L41997.7,15705.8L41997.7,15791.9L41846.4,15791.9L41846.4,15419.9Z" style="fill:rgb(255,204,226);fill-rule:nonzero;"/>
                <path d="M41846.4,15376.4L41930.8,15376.4C41954.8,15376.4 41974.2,15395.9 41974.2,15419.9C41974.2,15419.9 41974.2,15662.3 41974.2,15662.3L41997.7,15662.3C42021.7,15662.3 42041.1,15681.8 42041.1,15705.8L42041.1,15791.9C42041.1,15815.9 42021.7,15835.4 41997.7,15835.4L41846.4,15835.4C41822.4,15835.4 41802.9,15815.9 41802.9,15791.9L41802.9,15419.9C41802.9,15395.9 41822.4,15376.4 41846.4,15376.4ZM41846.4,15419.9L41846.4,15791.9L41997.7,15791.9L41997.7,15705.8L41930.8,15705.8L41930.8,15419.9L41846.4,15419.9Z" style="fill:rgb(0,42,54);"/>
                <path d="M42200.4,15791.9L42200.4,15758.2L42199.2,15758.2C42189.4,15772.7 42179.9,15783.4 42170.7,15790.2C42161.5,15797.1 42150.7,15800.5 42138.2,15800.5C42113.9,15800.5 42094.5,15788.1 42080,15763.2C42065.5,15738.3 42058.2,15704.5 42058.2,15661.8C42058.2,15620.7 42065.6,15588 42080.2,15563.7C42094.9,15539.3 42114.2,15527.1 42138.2,15527.1C42151,15527.1 42161.9,15530.4 42170.8,15536.8C42179.7,15543.2 42189,15553.4 42198.7,15567.6L42199.8,15567.6L42199.8,15535.5L42280.9,15535.5L42280.9,15791.9L42200.4,15791.9ZM42200.4,15662.3C42200.4,15619.8 42190,15598.5 42169.1,15598.5C42148.2,15598.5 42137.7,15619.8 42137.7,15662.3C42137.7,15706.5 42148.5,15728.6 42170.3,15728.6C42190.3,15728.6 42200.4,15706.5 42200.4,15662.3Z" style="fill:rgb(255,204,226);fill-rule:nonzero;"/>
                <path d="M42185.1,15494.6C42189.7,15493 42194.6,15492.1 42199.8,15492.1L42280.9,15492.1C42304.9,15492.1 42324.4,15511.5 42324.4,15535.5L42324.4,15791.9C42324.4,15815.9 42304.9,15835.4 42280.9,15835.4L42200.4,15835.4C42194.9,15835.4 42189.8,15834.4 42185,15832.6C42171.1,15840.1 42155.6,15844 42138.2,15844C42098.6,15844 42066,15825.5 42042.4,15785.1C42024.8,15754.7 42014.8,15713.8 42014.8,15661.8C42014.8,15611.2 42025,15571.2 42043,15541.2C42066.9,15501.7 42099.3,15483.7 42138.2,15483.7C42156,15483.7 42171.6,15487.5 42185.1,15494.6ZM42200.4,15791.9L42280.9,15791.9L42280.9,15535.5L42199.8,15535.5L42199.8,15567.6L42198.7,15567.6C42189,15553.4 42179.7,15543.2 42170.8,15536.8C42161.9,15530.4 42151,15527.1 42138.2,15527.1C42114.2,15527.1 42094.9,15539.3 42080.2,15563.7C42065.6,15588 42058.2,15620.7 42058.2,15661.8C42058.2,15704.5 42065.5,15738.3 42080,15763.2C42094.5,15788.1 42113.9,15800.5 42138.2,15800.5C42150.7,15800.5 42161.5,15797.1 42170.7,15790.2C42179.9,15783.4 42189.4,15772.7 42199.2,15758.2L42200.4,15758.2L42200.4,15791.9ZM42200.4,15662.3C42200.4,15706.5 42190.3,15728.6 42170.3,15728.6C42148.5,15728.6 42137.7,15706.5 42137.7,15662.3C42137.7,15619.8 42148.2,15598.5 42169.1,15598.5C42190,15598.5 42200.4,15619.8 42200.4,15662.3Z" style="fill:rgb(0,42,54);"/>
                <path d="M42379.1,15709.1C42406.8,15725.5 42426.7,15733.7 42439,15733.7C42445.7,15733.7 42451.3,15731.9 42455.7,15728.5C42460.2,15725.1 42462.4,15720.9 42462.4,15716.1C42462.4,15710.9 42460.5,15707.1 42456.8,15704.7C42453.1,15702.3 42439.2,15695.8 42415,15685.2C42395.7,15676.6 42381.8,15666.5 42373.2,15654.9C42364.7,15643.3 42360.4,15628.9 42360.4,15611.6C42360.4,15586.9 42368.9,15566.5 42385.9,15550.6C42402.9,15534.6 42424.6,15526.6 42451,15526.6C42476.6,15526.6 42508,15536.8 42545.2,15557.2L42514,15614.9C42489.8,15600.1 42470,15592.6 42454.6,15592.6C42441.2,15592.6 42434.5,15598 42434.5,15608.8C42434.5,15614 42437,15618.5 42441.9,15622.3C42446.8,15626.1 42455.8,15630.4 42468.8,15635C42493.2,15643.5 42510.8,15653.8 42521.9,15665.7C42533,15677.5 42538.5,15692.6 42538.5,15710.8C42538.5,15736.8 42529.8,15758.2 42512.3,15774.9C42494.8,15791.6 42472.5,15800 42445.4,15800C42416,15800 42384.6,15789.7 42351.2,15769.1L42379.1,15709.1Z" style="fill:rgb(255,204,226);fill-rule:nonzero;"/>
                <path d="M42342.3,15685.9C42340.9,15684.2 42339.5,15682.4 42338.2,15680.7C42324.6,15662.1 42317,15639.2 42317,15611.6C42317,15574 42330.3,15543.2 42356.1,15518.9C42381,15495.5 42412.4,15483.1 42451,15483.1C42482.2,15483.1 42520.9,15494.3 42566.1,15519.2C42587,15530.7 42594.8,15556.9 42583.4,15577.9L42552.6,15634.9C42553,15635.3 42553.3,15635.7 42553.7,15636.1C42572.1,15655.8 42581.9,15680.6 42581.9,15710.8C42581.9,15749.6 42568.4,15781.3 42542.3,15806.3C42517,15830.6 42484.8,15843.4 42445.4,15843.4C42409,15843.4 42369.8,15831.6 42328.4,15806C42309.6,15794.5 42302.5,15770.7 42311.8,15750.7L42339.7,15690.8C42340.5,15689.1 42341.4,15687.5 42342.3,15685.9ZM42379.1,15709.1L42351.2,15769.1C42384.6,15789.7 42416,15800 42445.4,15800C42472.5,15800 42494.8,15791.6 42512.3,15774.9C42529.8,15758.2 42538.5,15736.8 42538.5,15710.8C42538.5,15692.6 42533,15677.5 42521.9,15665.7C42510.8,15653.8 42493.2,15643.5 42468.8,15635C42455.8,15630.4 42446.8,15626.1 42441.9,15622.3C42437,15618.5 42434.5,15614 42434.5,15608.8C42434.5,15598 42441.2,15592.6 42454.6,15592.6C42470,15592.6 42489.8,15600.1 42514,15614.9L42545.2,15557.2C42508,15536.8 42476.6,15526.6 42451,15526.6C42424.6,15526.6 42402.9,15534.6 42385.9,15550.6C42368.9,15566.5 42360.4,15586.9 42360.4,15611.6C42360.4,15628.9 42364.7,15643.3 42373.2,15654.9C42381.8,15666.5 42395.7,15676.6 42415,15685.2C42439.2,15695.8 42453.1,15702.3 42456.8,15704.7C42460.5,15707.1 42462.4,15710.9 42462.4,15716.1C42462.4,15720.9 42460.2,15725.1 42455.7,15728.5C42451.3,15731.9 42445.7,15733.7 42439,15733.7C42426.7,15733.7 42406.8,15725.5 42379.1,15709.1Z" style="fill:rgb(0,42,54);"/>
                <path d="M42624.4,15709.1C42652.1,15725.5 42672,15733.7 42684.3,15733.7C42691,15733.7 42696.6,15731.9 42701,15728.5C42705.5,15725.1 42707.7,15720.9 42707.7,15716.1C42707.7,15710.9 42705.9,15707.1 42702.1,15704.7C42698.4,15702.3 42684.5,15695.8 42660.3,15685.2C42641,15676.6 42627.1,15666.5 42618.5,15654.9C42610,15643.3 42605.7,15628.9 42605.7,15611.6C42605.7,15586.9 42614.2,15566.5 42631.2,15550.6C42648.2,15534.6 42669.9,15526.6 42696.3,15526.6C42721.9,15526.6 42753.3,15536.8 42790.5,15557.2L42759.3,15614.9C42735.1,15600.1 42715.3,15592.6 42699.9,15592.6C42686.5,15592.6 42679.9,15598 42679.9,15608.8C42679.9,15614 42682.3,15618.5 42687.2,15622.3C42692.2,15626.1 42701.1,15630.4 42714.1,15635C42738.5,15643.5 42756.2,15653.8 42767.2,15665.7C42778.3,15677.5 42783.8,15692.6 42783.8,15710.8C42783.8,15736.8 42775.1,15758.2 42757.6,15774.9C42740.1,15791.6 42717.8,15800 42690.7,15800C42661.4,15800 42630,15789.7 42596.5,15769.1L42624.4,15709.1Z" style="fill:rgb(255,204,226);fill-rule:nonzero;"/>
                <path d="M42587.7,15685.9C42586.2,15684.2 42584.8,15682.4 42583.5,15680.7C42569.9,15662.1 42562.3,15639.2 42562.3,15611.6C42562.3,15574 42575.6,15543.2 42601.5,15518.9C42626.3,15495.5 42657.7,15483.1 42696.3,15483.1C42727.5,15483.1 42766.2,15494.3 42811.4,15519.2C42832.4,15530.7 42840.1,15556.9 42828.7,15577.9L42797.9,15634.9C42798.3,15635.3 42798.7,15635.7 42799,15636.1C42817.4,15655.8 42827.3,15680.6 42827.3,15710.8C42827.3,15749.6 42813.7,15781.3 42787.7,15806.3C42762.3,15830.6 42730.1,15843.4 42690.7,15843.4C42654.3,15843.4 42615.1,15831.6 42573.7,15806C42555,15794.5 42547.8,15770.7 42557.1,15750.7L42585,15690.8C42585.8,15689.1 42586.7,15687.5 42587.7,15685.9ZM42624.4,15709.1L42596.5,15769.1C42630,15789.7 42661.4,15800 42690.7,15800C42717.8,15800 42740.1,15791.6 42757.6,15774.9C42775.1,15758.2 42783.8,15736.8 42783.8,15710.8C42783.8,15692.6 42778.3,15677.5 42767.2,15665.7C42756.2,15653.8 42738.5,15643.5 42714.1,15635C42701.1,15630.4 42692.2,15626.1 42687.2,15622.3C42682.3,15618.5 42679.9,15614 42679.9,15608.8C42679.9,15598 42686.5,15592.6 42699.9,15592.6C42715.3,15592.6 42735.1,15600.1 42759.3,15614.9L42790.5,15557.2C42753.3,15536.8 42721.9,15526.6 42696.3,15526.6C42669.9,15526.6 42648.2,15534.6 42631.2,15550.6C42614.2,15566.5 42605.7,15586.9 42605.7,15611.6C42605.7,15628.9 42610,15643.3 42618.5,15654.9C42627.1,15666.5 42641,15676.6 42660.3,15685.2C42684.5,15695.8 42698.4,15702.3 42702.1,15704.7C42705.9,15707.1 42707.7,15710.9 42707.7,15716.1C42707.7,15720.9 42705.5,15725.1 42701,15728.5C42696.6,15731.9 42691,15733.7 42684.3,15733.7C42672,15733.7 42652.1,15725.5 42624.4,15709.1Z" style="fill:rgb(0,42,54);"/>
                <path d="M43025,15535.5L43106.1,15535.5L43106.1,15700.5C43106.1,15709 43108.1,15716.1 43112.1,15721.8C43116.1,15727.5 43121.5,15730.3 43128.4,15730.3C43144,15730.3 43151.8,15718.9 43151.8,15696L43151.8,15535.5L43232.9,15535.5L43232.9,15684.1C43232.9,15721.8 43224.1,15750.6 43206.4,15770.6C43188.8,15790.6 43163.3,15800.5 43130.1,15800.5C43092.9,15800.5 43066.1,15790.3 43049.7,15769.9C43033.2,15749.5 43025,15723.9 43025,15693.2L43025,15535.5Z" style="fill:rgb(255,204,226);fill-rule:nonzero;"/>
                <path d="M43129,15498.5C43135.6,15494.4 43143.4,15492.1 43151.8,15492.1L43232.9,15492.1C43256.9,15492.1 43276.4,15511.5 43276.4,15535.5L43276.4,15684.1C43276.4,15734.6 43262.6,15772.6 43239,15799.4C43213.7,15828 43177.8,15844 43130.1,15844C43076.7,15844 43039.4,15826.5 43015.8,15797.1C42993.5,15769.4 42981.6,15734.9 42981.6,15693.2L42981.6,15535.5C42981.6,15511.5 43001,15492.1 43025,15492.1L43106.1,15492.1C43114.5,15492.1 43122.3,15494.4 43129,15498.5ZM43025,15535.5L43025,15693.2C43025,15723.9 43033.2,15749.5 43049.7,15769.9C43066.1,15790.3 43092.9,15800.5 43130.1,15800.5C43163.3,15800.5 43188.8,15790.6 43206.4,15770.6C43224.1,15750.6 43232.9,15721.8 43232.9,15684.1L43232.9,15535.5L43151.8,15535.5L43151.8,15696C43151.8,15718.9 43144,15730.3 43128.4,15730.3C43121.5,15730.3 43116.1,15727.5 43112.1,15721.8C43108.1,15716.1 43106.1,15709 43106.1,15700.5L43106.1,15535.5L43025,15535.5Z" style="fill:rgb(0,42,54);"/>
                <path d="M43400.5,15535.5L43400.5,15570.3L43401.9,15570.3C43420.8,15541.5 43444,15527.1 43471.3,15527.1C43489.1,15527.1 43503.3,15533.1 43513.8,15545C43524.3,15556.9 43529.5,15572.9 43529.5,15593.2L43529.5,15791.9L43448.4,15791.9L43448.4,15633.9C43448.4,15625.2 43446.4,15618 43442.3,15612.4C43438.2,15606.9 43432.9,15604.1 43426.4,15604.1C43409.1,15604.1 43400.5,15614.9 43400.5,15636.7L43400.5,15791.9L43319.7,15791.9L43319.7,15535.5L43400.5,15535.5Z" style="fill:rgb(255,204,226);fill-rule:nonzero;"/>
                <path d="M43418.8,15496.1C43435.1,15487.7 43452.7,15483.7 43471.3,15483.7C43502.9,15483.7 43527.7,15495.1 43546.3,15516.2C43563.2,15535.3 43573,15560.7 43573,15593.2L43573,15791.9C43573,15815.9 43553.5,15835.4 43529.5,15835.4L43448.4,15835.4C43439.6,15835.4 43431.3,15832.7 43424.4,15828.2C43417.6,15832.7 43409.3,15835.4 43400.5,15835.4L43319.7,15835.4C43295.7,15835.4 43276.2,15815.9 43276.2,15791.9L43276.2,15535.5C43276.2,15511.5 43295.7,15492.1 43319.7,15492.1L43400.5,15492.1C43407,15492.1 43413.2,15493.5 43418.8,15496.1ZM43400.5,15535.5L43319.7,15535.5L43319.7,15791.9L43400.5,15791.9L43400.5,15636.7C43400.5,15614.9 43409.1,15604.1 43426.4,15604.1C43432.9,15604.1 43438.2,15606.9 43442.3,15612.4C43446.4,15618 43448.4,15625.2 43448.4,15633.9L43448.4,15791.9L43529.5,15791.9L43529.5,15593.2C43529.5,15572.9 43524.3,15556.9 43513.8,15545C43503.3,15533.1 43489.1,15527.1 43471.3,15527.1C43444,15527.1 43420.8,15541.5 43401.9,15570.3L43400.5,15570.3L43400.5,15535.5Z" style="fill:rgb(0,42,54);"/>
                <path d="M43625.5,15709.1C43653.1,15725.5 43673.1,15733.7 43685.4,15733.7C43692.1,15733.7 43697.6,15731.9 43702.1,15728.5C43706.5,15725.1 43708.8,15720.9 43708.8,15716.1C43708.8,15710.9 43706.9,15707.1 43703.2,15704.7C43699.5,15702.3 43685.6,15695.8 43661.4,15685.2C43642.1,15676.6 43628.1,15666.5 43619.6,15654.9C43611.1,15643.3 43606.8,15628.9 43606.8,15611.6C43606.8,15586.9 43615.3,15566.5 43632.3,15550.6C43649.3,15534.6 43671,15526.6 43697.4,15526.6C43723,15526.6 43754.4,15536.8 43791.5,15557.2L43760.3,15614.9C43736.2,15600.1 43716.4,15592.6 43701,15592.6C43687.6,15592.6 43680.9,15598 43680.9,15608.8C43680.9,15614 43683.4,15618.5 43688.3,15622.3C43693.2,15626.1 43702.2,15630.4 43715.2,15635C43739.5,15643.5 43757.2,15653.8 43768.3,15665.7C43779.3,15677.5 43784.9,15692.6 43784.9,15710.8C43784.9,15736.8 43776.1,15758.2 43758.7,15774.9C43741.2,15791.6 43718.9,15800 43691.8,15800C43662.4,15800 43631,15789.7 43597.6,15769.1L43625.5,15709.1Z" style="fill:rgb(255,204,226);fill-rule:nonzero;"/>
                <path d="M43588.7,15685.9C43587.3,15684.2 43585.9,15682.4 43584.6,15680.7C43570.9,15662.1 43563.3,15639.2 43563.3,15611.6C43563.3,15574 43576.7,15543.2 43602.5,15518.9C43627.4,15495.5 43658.8,15483.1 43697.4,15483.1C43728.6,15483.1 43767.2,15494.3 43812.5,15519.2C43833.4,15530.7 43841.1,15556.9 43829.8,15577.9L43799,15634.9C43799.3,15635.3 43799.7,15635.7 43800.1,15636.1C43818.5,15655.8 43828.3,15680.6 43828.3,15710.8C43828.3,15749.6 43814.8,15781.3 43788.7,15806.3C43763.3,15830.6 43731.2,15843.4 43691.8,15843.4C43655.4,15843.4 43616.2,15831.6 43574.8,15806C43556,15794.5 43548.9,15770.7 43558.2,15750.7L43586.1,15690.8C43586.8,15689.1 43587.7,15687.5 43588.7,15685.9ZM43625.5,15709.1L43597.6,15769.1C43631,15789.7 43662.4,15800 43691.8,15800C43718.9,15800 43741.2,15791.6 43758.7,15774.9C43776.1,15758.2 43784.9,15736.8 43784.9,15710.8C43784.9,15692.6 43779.3,15677.5 43768.3,15665.7C43757.2,15653.8 43739.5,15643.5 43715.2,15635C43702.2,15630.4 43693.2,15626.1 43688.3,15622.3C43683.4,15618.5 43680.9,15614 43680.9,15608.8C43680.9,15598 43687.6,15592.6 43701,15592.6C43716.4,15592.6 43736.2,15600.1 43760.3,15614.9L43791.5,15557.2C43754.4,15536.8 43723,15526.6 43697.4,15526.6C43671,15526.6 43649.3,15534.6 43632.3,15550.6C43615.3,15566.5 43606.8,15586.9 43606.8,15611.6C43606.8,15628.9 43611.1,15643.3 43619.6,15654.9C43628.1,15666.5 43642.1,15676.6 43661.4,15685.2C43685.6,15695.8 43699.5,15702.3 43703.2,15704.7C43706.9,15707.1 43708.8,15710.9 43708.8,15716.1C43708.8,15720.9 43706.5,15725.1 43702.1,15728.5C43697.6,15731.9 43692.1,15733.7 43685.4,15733.7C43673.1,15733.7 43653.1,15725.5 43625.5,15709.1Z" style="fill:rgb(0,42,54);"/>
                <path d="M42111.3,16284.3L42111.3,16351.2C42092,16364.2 42072.5,16370.7 42053,16370.7C42024.2,16370.7 42001.2,16358.2 41983.8,16333.3C41966.4,16308.3 41957.7,16274.7 41957.7,16232.5C41957.7,16192.6 41966.6,16160.1 41984.5,16135C42002.3,16109.9 42025.4,16097.3 42053.6,16097.3C42073.3,16097.3 42092.7,16104.3 42111.8,16118.2L42111.8,16184.6C42100.9,16178.8 42091,16175.9 42082.3,16175.9C42069.3,16175.9 42058.8,16181.2 42050.8,16191.7C42042.8,16202.2 42038.8,16216.2 42038.8,16233.6C42038.8,16252 42042.7,16266.5 42050.5,16277.1C42058.3,16287.7 42068.9,16293 42082.3,16293C42090.5,16293 42100.1,16290.1 42111.3,16284.3Z" style="fill:rgb(255,204,226);fill-rule:nonzero;"/>
                <path d="M42084.3,16219.7C42082.4,16223.3 42082.3,16228.1 42082.3,16233.6C42082.3,16239.8 42082.4,16245.2 42084.3,16249.2C42086.3,16248.6 42088.6,16247.2 42091.3,16245.7C42104.8,16238.8 42120.9,16239.4 42133.9,16247.2C42146.8,16255.1 42154.7,16269.2 42154.7,16284.3L42154.7,16351.2C42154.7,16365.7 42147.5,16379.2 42135.5,16387.3C42108.2,16405.7 42080.6,16414.2 42053,16414.2C42009.5,16414.2 41974.4,16395.8 41948.1,16358.1C41926.4,16326.8 41914.3,16285.2 41914.3,16232.5C41914.3,16182.1 41926.6,16141.4 41949.1,16109.8C41975.9,16072 42011.1,16053.9 42053.6,16053.9C42081.8,16053.9 42110,16063.1 42137.4,16083.1C42148.7,16091.3 42155.3,16104.4 42155.3,16118.2L42155.3,16184.6C42155.3,16199.8 42147.3,16213.9 42134.3,16221.8C42121.3,16229.6 42105.1,16230.1 42091.6,16223C42088.9,16221.6 42086.6,16220.2 42084.3,16219.7ZM42111.3,16284.3C42100.1,16290.1 42090.5,16293 42082.3,16293C42068.9,16293 42058.3,16287.7 42050.5,16277.1C42042.7,16266.5 42038.8,16252 42038.8,16233.6C42038.8,16216.2 42042.8,16202.2 42050.8,16191.7C42058.8,16181.2 42069.3,16175.9 42082.3,16175.9C42091,16175.9 42100.9,16178.8 42111.8,16184.6L42111.8,16118.2C42092.7,16104.3 42073.3,16097.3 42053.6,16097.3C42025.4,16097.3 42002.3,16109.9 41984.5,16135C41966.6,16160.1 41957.7,16192.6 41957.7,16232.5C41957.7,16274.7 41966.4,16308.3 41983.8,16333.3C42001.2,16358.2 42024.2,16370.7 42053,16370.7C42072.5,16370.7 42092,16364.2 42111.3,16351.2L42111.3,16284.3Z" style="fill:rgb(0,42,54);"/>
                <path d="M42185.8,15970L42266.6,15970L42266.6,16139.4L42268,16139.4C42287.9,16111.7 42310.8,16097.9 42336.8,16097.9C42355.4,16097.9 42369.8,16104 42380.2,16116.2C42390.5,16128.3 42395.6,16145.5 42395.6,16167.6L42395.6,16362.7L42314.5,16362.7L42314.5,16206.3C42314.5,16196.3 42312.5,16188.4 42308.5,16182.8C42304.5,16177.1 42299,16174.3 42291.9,16174.3C42275,16174.3 42266.6,16185.7 42266.6,16208.5L42266.6,16362.7L42185.8,16362.7L42185.8,15970Z" style="fill:rgb(255,204,226);fill-rule:nonzero;"/>
                <path d="M42310,16057.5C42318.8,16055.5 42327.7,16054.5 42336.8,16054.5C42369.8,16054.5 42395,16066.4 42413.3,16088.1C42429.4,16107 42439.1,16133.2 42439.1,16167.6L42439.1,16362.7C42439.1,16386.7 42419.6,16406.1 42395.6,16406.1L42314.5,16406.1C42305.7,16406.1 42297.4,16403.5 42290.6,16398.9C42283.7,16403.5 42275.4,16406.1 42266.6,16406.1L42185.8,16406.1C42161.8,16406.1 42142.3,16386.7 42142.3,16362.7L42142.3,15970C42142.3,15946 42161.8,15926.5 42185.8,15926.5L42266.6,15926.5C42290.6,15926.5 42310,15946 42310,15970L42310,16057.5ZM42185.8,15970L42185.8,16362.7L42266.6,16362.7L42266.6,16208.5C42266.6,16185.7 42275,16174.3 42291.9,16174.3C42299,16174.3 42304.5,16177.1 42308.5,16182.8C42312.5,16188.4 42314.5,16196.3 42314.5,16206.3L42314.5,16362.7L42395.6,16362.7L42395.6,16167.6C42395.6,16145.5 42390.5,16128.3 42380.2,16116.2C42369.8,16104 42355.4,16097.9 42336.8,16097.9C42310.8,16097.9 42287.9,16111.7 42268,16139.4L42266.6,16139.4L42266.6,15970L42185.8,15970Z" style="fill:rgb(0,42,54);"/>
                <path d="M42609.7,16362.7L42609.7,16328.9L42608.6,16328.9C42598.8,16343.4 42589.2,16354.1 42580,16361C42570.8,16367.9 42560,16371.3 42547.6,16371.3C42523.2,16371.3 42503.8,16358.9 42489.3,16334C42474.8,16309.1 42467.6,16275.2 42467.6,16232.5C42467.6,16191.5 42474.9,16158.8 42489.6,16134.4C42504.3,16110.1 42523.6,16097.9 42547.6,16097.9C42560.4,16097.9 42571.3,16101.1 42580.2,16107.5C42589.1,16113.9 42598.4,16124.2 42608.1,16138.3L42609.2,16138.3L42609.2,16106.3L42690.3,16106.3L42690.3,16362.7L42609.7,16362.7ZM42609.7,16233.1C42609.7,16190.5 42599.3,16169.2 42578.5,16169.2C42557.5,16169.2 42547,16190.5 42547,16233.1C42547,16277.3 42557.9,16299.4 42579.6,16299.4C42599.7,16299.4 42609.7,16277.3 42609.7,16233.1Z" style="fill:rgb(255,204,226);fill-rule:nonzero;"/>
                <path d="M42594.4,16065.4C42599,16063.7 42604,16062.8 42609.2,16062.8L42690.3,16062.8C42714.3,16062.8 42733.7,16082.3 42733.7,16106.3L42733.7,16362.7C42733.7,16386.7 42714.3,16406.1 42690.3,16406.1L42609.7,16406.1C42604.3,16406.1 42599.1,16405.1 42594.3,16403.3C42580.5,16410.8 42565,16414.7 42547.6,16414.7C42508,16414.7 42475.3,16396.3 42451.8,16355.8C42434.1,16325.5 42424.1,16284.6 42424.1,16232.5C42424.1,16181.9 42434.3,16141.9 42452.4,16112C42476.2,16072.5 42508.7,16054.5 42547.6,16054.5C42565.4,16054.5 42580.9,16058.3 42594.4,16065.4ZM42609.7,16362.7L42690.3,16362.7L42690.3,16106.3L42609.2,16106.3L42609.2,16138.3L42608.1,16138.3C42598.4,16124.2 42589.1,16113.9 42580.2,16107.5C42571.3,16101.1 42560.4,16097.9 42547.6,16097.9C42523.6,16097.9 42504.3,16110.1 42489.6,16134.4C42474.9,16158.8 42467.6,16191.5 42467.6,16232.5C42467.6,16275.2 42474.8,16309.1 42489.3,16334C42503.8,16358.9 42523.2,16371.3 42547.6,16371.3C42560,16371.3 42570.8,16367.9 42580,16361C42589.2,16354.1 42598.8,16343.4 42608.6,16328.9L42609.7,16328.9L42609.7,16362.7ZM42609.7,16233.1C42609.7,16277.3 42599.7,16299.4 42579.6,16299.4C42557.9,16299.4 42547,16277.3 42547,16233.1C42547,16190.5 42557.5,16169.2 42578.5,16169.2C42599.3,16169.2 42609.7,16190.5 42609.7,16233.1Z" style="fill:rgb(0,42,54);"/>
                <path d="M42789,16038L42870.1,16038L42870.1,16106.3L42901.6,16106.3L42901.6,16173.7L42869.5,16173.7L42869.5,16362.7L42789,16362.7L42789,16173.2L42758.3,16173.2L42758.3,16106.3L42789,16106.3L42789,16038Z" style="fill:rgb(255,204,226);fill-rule:nonzero;"/>
                <path d="M42745.5,16064.7L42745.5,16038C42745.5,16014 42765,15994.5 42789,15994.5L42870.1,15994.5C42894.1,15994.5 42913.5,16014 42913.5,16038L42913.5,16064.5C42931.7,16069.7 42945,16086.4 42945,16106.3L42945,16173.7C42945,16193.8 42931.5,16210.6 42913,16215.6L42913,16362.7C42913,16386.7 42893.5,16406.1 42869.5,16406.1L42789,16406.1C42765,16406.1 42745.5,16386.7 42745.5,16362.7L42745.5,16214.7C42727.8,16209.2 42714.9,16192.7 42714.9,16173.2L42714.9,16106.3C42714.9,16086.7 42727.8,16070.2 42745.5,16064.7ZM42789,16038L42789,16106.3L42758.3,16106.3L42758.3,16173.2L42789,16173.2L42789,16362.7L42869.5,16362.7L42869.5,16173.7L42901.6,16173.7L42901.6,16106.3L42870.1,16106.3L42870.1,16038L42789,16038Z" style="fill:rgb(0,42,54);"/>
                <path d="M42979.7,16038L43060.8,16038L43060.8,16106.3L43092.3,16106.3L43092.3,16173.7L43060.2,16173.7L43060.2,16362.7L42979.7,16362.7L42979.7,16173.2L42949,16173.2L42949,16106.3L42979.7,16106.3L42979.7,16038Z" style="fill:rgb(255,204,226);fill-rule:nonzero;"/>
                <path d="M42936.2,16064.7L42936.2,16038C42936.2,16014 42955.7,15994.5 42979.7,15994.5L43060.8,15994.5C43084.8,15994.5 43104.2,16014 43104.2,16038L43104.2,16064.5C43122.4,16069.7 43135.7,16086.4 43135.7,16106.3L43135.7,16173.7C43135.7,16193.8 43122.1,16210.6 43103.7,16215.6L43103.7,16362.7C43103.7,16386.7 43084.2,16406.1 43060.2,16406.1L42979.7,16406.1C42955.7,16406.1 42936.2,16386.7 42936.2,16362.7L42936.2,16214.7C42918.5,16209.2 42905.6,16192.7 42905.6,16173.2L42905.6,16106.3C42905.6,16086.7 42918.5,16070.2 42936.2,16064.7ZM42979.7,16038L42979.7,16106.3L42949,16106.3L42949,16173.2L42979.7,16173.2L42979.7,16362.7L43060.2,16362.7L43060.2,16173.7L43092.3,16173.7L43092.3,16106.3L43060.8,16106.3L43060.8,16038L42979.7,16038Z" style="fill:rgb(0,42,54);"/>
                <path d="M43280.7,16284.3L43349,16284.3C43336,16341.9 43303.5,16370.7 43251.5,16370.7C43219,16370.7 43193.2,16358.4 43174.3,16333.7C43155.3,16309 43145.9,16274.9 43145.9,16231.4C43145.9,16190.9 43155.3,16158.4 43174.3,16134C43193.2,16109.6 43218.4,16097.3 43249.8,16097.3C43268.8,16097.3 43287,16103.2 43304.4,16115C43321.9,16126.8 43334.6,16142.5 43342.6,16162C43350.6,16181.5 43355.1,16212.3 43356,16254.2L43220.8,16254.2C43221.9,16292.3 43232.5,16311.4 43252.6,16311.4C43259.5,16311.4 43265.6,16308.9 43271,16303.9C43276.4,16298.8 43279.6,16292.3 43280.7,16284.3ZM43221.9,16210.2L43280.7,16210.2C43280.2,16192.2 43277.7,16178.9 43273.2,16170.2C43268.8,16161.6 43261.7,16157.3 43252,16157.3C43241.3,16157.3 43233.6,16161.4 43228.9,16169.8C43224.3,16178.2 43221.9,16191.6 43221.9,16210.2Z" style="fill:rgb(255,204,226);fill-rule:nonzero;"/>
                <path d="M43392.1,16278.5C43392.8,16283.5 43392.6,16288.8 43391.4,16293.9C43382.5,16333.2 43365.9,16362 43343.7,16381.7C43320,16402.7 43289.5,16414.2 43251.5,16414.2C43204.4,16414.2 43167.3,16395.9 43139.8,16360.1C43115.9,16328.9 43102.4,16286.3 43102.4,16231.4C43102.4,16179.7 43115.7,16138.6 43140,16107.4C43167.5,16071.8 43204.1,16053.9 43249.8,16053.9C43277.2,16053.9 43303.6,16062 43328.8,16079C43353.5,16095.7 43371.5,16117.9 43382.8,16145.5C43392.2,16168.4 43398.3,16204.2 43399.4,16253.3C43399.6,16262.3 43397,16271.1 43392.1,16278.5ZM43280.7,16284.3C43279.6,16292.3 43276.4,16298.8 43271,16303.9C43265.6,16308.9 43259.5,16311.4 43252.6,16311.4C43232.5,16311.4 43221.9,16292.3 43220.8,16254.2L43356,16254.2C43355.1,16212.3 43350.6,16181.5 43342.6,16162C43334.6,16142.5 43321.9,16126.8 43304.4,16115C43287,16103.2 43268.8,16097.3 43249.8,16097.3C43218.4,16097.3 43193.2,16109.6 43174.3,16134C43155.3,16158.4 43145.9,16190.9 43145.9,16231.4C43145.9,16274.9 43155.3,16309 43174.3,16333.7C43193.2,16358.4 43219,16370.7 43251.5,16370.7C43303.5,16370.7 43336,16341.9 43349,16284.3L43280.7,16284.3ZM43221.9,16210.2C43221.9,16191.6 43224.3,16178.2 43228.9,16169.8C43233.6,16161.4 43241.3,16157.3 43252,16157.3C43261.7,16157.3 43268.8,16161.6 43273.2,16170.2C43277.7,16178.9 43280.2,16192.2 43280.7,16210.2L43221.9,16210.2ZM43255.5,16200.4L43251.8,16196.6L43248.1,16200.4C43249.4,16200.6 43250.7,16200.7 43252,16200.7C43253.3,16200.7 43254.5,16200.6 43255.5,16200.4Z" style="fill:rgb(0,42,54);"/>
                <path d="M43511,16106.3L43511,16141.1L43512.4,16141.1C43531.4,16112.3 43554.5,16097.9 43581.8,16097.9C43599.6,16097.9 43613.8,16103.9 43624.3,16115.7C43634.8,16127.6 43640,16143.7 43640,16164L43640,16362.7L43558.9,16362.7L43558.9,16204.6C43558.9,16195.9 43556.9,16188.8 43552.8,16183.2C43548.7,16177.6 43543.4,16174.8 43536.9,16174.8C43519.7,16174.8 43511,16185.7 43511,16207.4L43511,16362.7L43430.2,16362.7L43430.2,16106.3L43511,16106.3Z" style="fill:rgb(255,204,226);fill-rule:nonzero;"/>
                <path d="M43529.3,16066.8C43545.6,16058.4 43563.2,16054.5 43581.8,16054.5C43613.5,16054.5 43638.2,16065.9 43656.9,16087C43673.7,16106.1 43683.5,16131.4 43683.5,16164L43683.5,16362.7C43683.5,16386.7 43664,16406.1 43640,16406.1L43558.9,16406.1C43550.1,16406.1 43541.8,16403.5 43535,16398.9C43528.1,16403.5 43519.9,16406.1 43511,16406.1L43430.2,16406.1C43406.2,16406.1 43386.7,16386.7 43386.7,16362.7L43386.7,16106.3C43386.7,16082.3 43406.2,16062.8 43430.2,16062.8L43511,16062.8C43517.5,16062.8 43523.7,16064.3 43529.3,16066.8ZM43511,16106.3L43430.2,16106.3L43430.2,16362.7L43511,16362.7L43511,16207.4C43511,16185.7 43519.7,16174.8 43536.9,16174.8C43543.4,16174.8 43548.7,16177.6 43552.8,16183.2C43556.9,16188.8 43558.9,16195.9 43558.9,16204.6L43558.9,16362.7L43640,16362.7L43640,16164C43640,16143.7 43634.8,16127.6 43624.3,16115.7C43613.8,16103.9 43599.6,16097.9 43581.8,16097.9C43554.5,16097.9 43531.4,16112.3 43512.4,16141.1L43511,16141.1L43511,16106.3Z" style="fill:rgb(0,42,54);"/>
            </g>
        </g>
        <g transform="matrix(0.702425,0,0,0.288503,13446.9,12907.8)">
            <g transform="matrix(1.42364,0,0,3.46617,-19143.5,-44740.7)">
                <path d="M46065.7,17940.6C45390.1,18336.4 44635.5,18119.7 44635.5,18119.7C44611.2,18112.7 44597.1,18087.3 44604.1,18063C44611.1,18038.6 44636.5,18024.6 44660.8,18031.6C44660.8,18031.6 45359.8,18232.5 45995.1,17875.5C45917.8,17835.8 45843.6,17767.6 45843.6,17767.6C45825,17750.4 45823.9,17721.4 45841.1,17702.8C45858.2,17684.3 45887.2,17683.1 45905.8,17700.3C45905.8,17700.3 45961.1,17751.4 46022.5,17786.2C46041,17796.6 46060,17805.7 46078.1,17810.6C46089.6,17813.7 46100.4,17815.9 46109.5,17812.6C46125.3,17807 46142.8,17810.4 46155.3,17821.5C46167.8,17832.6 46173.3,17849.6 46169.6,17865.8C46169.6,17865.8 46153.1,17939.3 46153.9,18009.9C46154.1,18031.1 46155.8,18052.1 46160.7,18070.2C46163.7,18081.8 46167.2,18092.2 46174.6,18098.4C46193.9,18114.8 46196.3,18143.7 46180,18163C46163.6,18182.3 46134.7,18184.7 46115.4,18168.3C46087,18144.3 46070,18102 46064.6,18052.6C46060.6,18016.2 46062.3,17975.9 46065.7,17940.6Z" style="fill:rgb(255,204,226);"/>
                <path d="M46097.4,17746.7C46133.2,17737.7 46171.5,17746.8 46199.5,17771.6C46230.2,17798.8 46243.6,17840.4 46234.7,17880.4L46234.7,17880.5C46234.7,17880.5 46219.9,17946.1 46220.5,18009.1C46220.7,18024.6 46221.6,18039.9 46225.1,18053.1C46225.2,18053.6 46225.4,18054.2 46225.6,18054.9C46265.6,18095.9 46268.6,18161.5 46230.8,18206.1C46190.7,18253.5 46119.6,18259.3 46072.3,18219.2C46032.9,18185.8 46005.9,18128.5 45998.3,18059.9C45998.1,18057.7 45997.9,18055.4 45997.7,18053.2C45325.6,18387.2 44617.1,18183.7 44617.1,18183.7L44617.1,18183.7C44557.4,18166.6 44522.9,18104.2 44540,18044.5C44557.2,17984.9 44619.5,17950.3 44679.2,17967.5L44679.2,17967.5C44679.2,17967.5 45280.1,18140.2 45862.1,17868.9C45824.3,17840.4 45798.5,17816.7 45798.5,17816.7C45798.4,17816.7 45798.4,17816.6 45798.4,17816.6C45752.8,17774.4 45750,17703.2 45792.1,17657.6C45834.2,17612 45905.5,17609.2 45951.1,17651.3L45951.1,17651.4C45951.1,17651.4 46000.4,17697.1 46055.3,17728.1C46068.8,17735.8 46082.5,17742.7 46095.7,17746.3C46096.2,17746.4 46096.8,17746.6 46097.4,17746.7ZM46065.7,17940.6C46062.3,17975.9 46060.6,18016.2 46064.6,18052.6C46070,18102 46087,18144.3 46115.4,18168.3C46134.7,18184.7 46163.6,18182.3 46180,18163C46196.3,18143.7 46193.9,18114.8 46174.6,18098.4C46167.2,18092.2 46163.7,18081.8 46160.7,18070.2C46155.8,18052.1 46154.1,18031.1 46153.9,18009.9C46153.1,17939.3 46169.6,17865.8 46169.6,17865.8C46173.3,17849.6 46167.8,17832.6 46155.3,17821.5C46142.8,17810.4 46125.3,17807 46109.5,17812.6C46100.4,17815.9 46089.6,17813.7 46078.1,17810.6C46060,17805.7 46041,17796.6 46022.5,17786.2C45961.1,17751.4 45905.8,17700.3 45905.8,17700.3C45887.2,17683.1 45858.2,17684.3 45841.1,17702.8C45823.9,17721.4 45825,17750.4 45843.6,17767.6C45843.6,17767.6 45917.8,17835.8 45995.1,17875.5C45359.8,18232.5 44660.8,18031.6 44660.8,18031.6C44636.5,18024.6 44611.1,18038.6 44604.1,18063C44597.1,18087.3 44611.2,18112.7 44635.5,18119.7C44635.5,18119.7 45390.1,18336.4 46065.7,17940.6Z" style="fill:rgb(0,42,54);"/>
            </g>
        </g>
    </g>
</svg>
