<?xml version="1.0" encoding="UTF-8" standalone="no"?>
<!DOCTYPE svg PUBLIC "-//W3C//DTD SVG 1.1//EN" "http://www.w3.org/Graphics/SVG/1.1/DTD/svg11.dtd">
<svg width="100%" height="100%" viewBox="0 0 4528 1467" version="1.1" xmlns="http://www.w3.org/2000/svg" xmlns:xlink="http://www.w3.org/1999/xlink" xml:space="preserve" xmlns:serif="http://www.serif.com/" style="fill-rule:evenodd;clip-rule:evenodd;stroke-linecap:round;stroke-linejoin:round;stroke-miterlimit:1.5;">
    <g transform="matrix(1,0,0,1,-41663.6,-16712.4)">
        <g transform="matrix(0.702425,0,0,0.288503,13446.9,12907.8)">
            <g transform="matrix(2.18431,0,0,5.3182,-51235.1,-68818.5)">
                <path d="M41846.4,15419.9L41930.8,15419.9L41930.8,15705.8L41997.7,15705.8L41997.7,15791.9L41846.4,15791.9L41846.4,15419.9Z" style="fill:rgb(0,42,54);fill-rule:nonzero;"/>
                <path d="M42200.4,15791.9L42200.4,15758.2L42199.2,15758.2C42189.4,15772.7 42179.9,15783.4 42170.7,15790.2C42161.5,15797.1 42150.7,15800.5 42138.2,15800.5C42113.9,15800.5 42094.5,15788.1 42080,15763.2C42065.5,15738.3 42058.2,15704.5 42058.2,15661.8C42058.2,15620.7 42065.6,15588 42080.2,15563.7C42094.9,15539.3 42114.2,15527.1 42138.2,15527.1C42151,15527.1 42161.9,15530.4 42170.8,15536.8C42179.7,15543.2 42189,15553.4 42198.7,15567.6L42199.8,15567.6L42199.8,15535.5L42280.9,15535.5L42280.9,15791.9L42200.4,15791.9ZM42200.4,15662.3C42200.4,15619.8 42190,15598.5 42169.1,15598.5C42148.2,15598.5 42137.7,15619.8 42137.7,15662.3C42137.7,15706.5 42148.5,15728.6 42170.3,15728.6C42190.3,15728.6 42200.4,15706.5 42200.4,15662.3Z" style="fill:rgb(0,42,54);fill-rule:nonzero;"/>
                <path d="M42379.1,15709.1C42406.8,15725.5 42426.7,15733.7 42439,15733.7C42445.7,15733.7 42451.3,15731.9 42455.7,15728.5C42460.2,15725.1 42462.4,15720.9 42462.4,15716.1C42462.4,15710.9 42460.5,15707.1 42456.8,15704.7C42453.1,15702.3 42439.2,15695.8 42415,15685.2C42395.7,15676.6 42381.8,15666.5 42373.2,15654.9C42364.7,15643.3 42360.4,15628.9 42360.4,15611.6C42360.4,15586.9 42368.9,15566.5 42385.9,15550.6C42402.9,15534.6 42424.6,15526.6 42451,15526.6C42476.6,15526.6 42508,15536.8 42545.2,15557.2L42514,15614.9C42489.8,15600.1 42470,15592.6 42454.6,15592.6C42441.2,15592.6 42434.5,15598 42434.5,15608.8C42434.5,15614 42437,15618.5 42441.9,15622.3C42446.8,15626.1 42455.8,15630.4 42468.8,15635C42493.2,15643.5 42510.8,15653.8 42521.9,15665.7C42533,15677.5 42538.5,15692.6 42538.5,15710.8C42538.5,15736.8 42529.8,15758.2 42512.3,15774.9C42494.8,15791.6 42472.5,15800 42445.4,15800C42416,15800 42384.6,15789.7 42351.2,15769.1L42379.1,15709.1Z" style="fill:rgb(0,42,54);fill-rule:nonzero;"/>
                <path d="M42624.4,15709.1C42652.1,15725.5 42672,15733.7 42684.3,15733.7C42691,15733.7 42696.6,15731.9 42701,15728.5C42705.5,15725.1 42707.7,15720.9 42707.7,15716.1C42707.7,15710.9 42705.9,15707.1 42702.1,15704.7C42698.4,15702.3 42684.5,15695.8 42660.3,15685.2C42641,15676.6 42627.1,15666.5 42618.5,15654.9C42610,15643.3 42605.7,15628.9 42605.7,15611.6C42605.7,15586.9 42614.2,15566.5 42631.2,15550.6C42648.2,15534.6 42669.9,15526.6 42696.3,15526.6C42721.9,15526.6 42753.3,15536.8 42790.5,15557.2L42759.3,15614.9C42735.1,15600.1 42715.3,15592.6 42699.9,15592.6C42686.5,15592.6 42679.9,15598 42679.9,15608.8C42679.9,15614 42682.3,15618.5 42687.2,15622.3C42692.2,15626.1 42701.1,15630.4 42714.1,15635C42738.5,15643.5 42756.2,15653.8 42767.2,15665.7C42778.3,15677.5 42783.8,15692.6 42783.8,15710.8C42783.8,15736.8 42775.1,15758.2 42757.6,15774.9C42740.1,15791.6 42717.8,15800 42690.7,15800C42661.4,15800 42630,15789.7 42596.5,15769.1L42624.4,15709.1Z" style="fill:rgb(0,42,54);fill-rule:nonzero;"/>
                <path d="M43025,15535.5L43106.1,15535.5L43106.1,15700.5C43106.1,15709 43108.1,15716.1 43112.1,15721.8C43116.1,15727.5 43121.5,15730.3 43128.4,15730.3C43144,15730.3 43151.8,15718.9 43151.8,15696L43151.8,15535.5L43232.9,15535.5L43232.9,15684.1C43232.9,15721.8 43224.1,15750.6 43206.4,15770.6C43188.8,15790.6 43163.3,15800.5 43130.1,15800.5C43092.9,15800.5 43066.1,15790.3 43049.7,15769.9C43033.2,15749.5 43025,15723.9 43025,15693.2L43025,15535.5Z" style="fill:rgb(0,42,54);fill-rule:nonzero;"/>
                <path d="M43400.5,15535.5L43400.5,15570.3L43401.9,15570.3C43420.8,15541.5 43444,15527.1 43471.3,15527.1C43489.1,15527.1 43503.3,15533.1 43513.8,15545C43524.3,15556.9 43529.5,15572.9 43529.5,15593.2L43529.5,15791.9L43448.4,15791.9L43448.4,15633.9C43448.4,15625.2 43446.4,15618 43442.3,15612.4C43438.2,15606.9 43432.9,15604.1 43426.4,15604.1C43409.1,15604.1 43400.5,15614.9 43400.5,15636.7L43400.5,15791.9L43319.7,15791.9L43319.7,15535.5L43400.5,15535.5Z" style="fill:rgb(0,42,54);fill-rule:nonzero;"/>
                <path d="M43625.5,15709.1C43653.1,15725.5 43673.1,15733.7 43685.4,15733.7C43692.1,15733.7 43697.6,15731.9 43702.1,15728.5C43706.5,15725.1 43708.8,15720.9 43708.8,15716.1C43708.8,15710.9 43706.9,15707.1 43703.2,15704.7C43699.5,15702.3 43685.6,15695.8 43661.4,15685.2C43642.1,15676.6 43628.1,15666.5 43619.6,15654.9C43611.1,15643.3 43606.8,15628.9 43606.8,15611.6C43606.8,15586.9 43615.3,15566.5 43632.3,15550.6C43649.3,15534.6 43671,15526.6 43697.4,15526.6C43723,15526.6 43754.4,15536.8 43791.5,15557.2L43760.3,15614.9C43736.2,15600.1 43716.4,15592.6 43701,15592.6C43687.6,15592.6 43680.9,15598 43680.9,15608.8C43680.9,15614 43683.4,15618.5 43688.3,15622.3C43693.2,15626.1 43702.2,15630.4 43715.2,15635C43739.5,15643.5 43757.2,15653.8 43768.3,15665.7C43779.3,15677.5 43784.9,15692.6 43784.9,15710.8C43784.9,15736.8 43776.1,15758.2 43758.7,15774.9C43741.2,15791.6 43718.9,15800 43691.8,15800C43662.4,15800 43631,15789.7 43597.6,15769.1L43625.5,15709.1Z" style="fill:rgb(0,42,54);fill-rule:nonzero;"/>
                <path d="M42111.3,16284.3L42111.3,16351.2C42092,16364.2 42072.5,16370.7 42053,16370.7C42024.2,16370.7 42001.2,16358.2 41983.8,16333.3C41966.4,16308.3 41957.7,16274.7 41957.7,16232.5C41957.7,16192.6 41966.6,16160.1 41984.5,16135C42002.3,16109.9 42025.4,16097.3 42053.6,16097.3C42073.3,16097.3 42092.7,16104.3 42111.8,16118.2L42111.8,16184.6C42100.9,16178.8 42091,16175.9 42082.3,16175.9C42069.3,16175.9 42058.8,16181.2 42050.8,16191.7C42042.8,16202.2 42038.8,16216.2 42038.8,16233.6C42038.8,16252 42042.7,16266.5 42050.5,16277.1C42058.3,16287.7 42068.9,16293 42082.3,16293C42090.5,16293 42100.1,16290.1 42111.3,16284.3Z" style="fill:rgb(0,42,54);fill-rule:nonzero;"/>
                <path d="M42185.8,15970L42266.6,15970L42266.6,16139.4L42268,16139.4C42287.9,16111.7 42310.8,16097.9 42336.8,16097.9C42355.4,16097.9 42369.8,16104 42380.2,16116.2C42390.5,16128.3 42395.6,16145.5 42395.6,16167.6L42395.6,16362.7L42314.5,16362.7L42314.5,16206.3C42314.5,16196.3 42312.5,16188.4 42308.5,16182.8C42304.5,16177.1 42299,16174.3 42291.9,16174.3C42275,16174.3 42266.6,16185.7 42266.6,16208.5L42266.6,16362.7L42185.8,16362.7L42185.8,15970Z" style="fill:rgb(0,42,54);fill-rule:nonzero;"/>
                <path d="M42609.7,16362.7L42609.7,16328.9L42608.6,16328.9C42598.8,16343.4 42589.2,16354.1 42580,16361C42570.8,16367.9 42560,16371.3 42547.6,16371.3C42523.2,16371.3 42503.8,16358.9 42489.3,16334C42474.8,16309.1 42467.6,16275.2 42467.6,16232.5C42467.6,16191.5 42474.9,16158.8 42489.6,16134.4C42504.3,16110.1 42523.6,16097.9 42547.6,16097.9C42560.4,16097.9 42571.3,16101.1 42580.2,16107.5C42589.1,16113.9 42598.4,16124.2 42608.1,16138.3L42609.2,16138.3L42609.2,16106.3L42690.3,16106.3L42690.3,16362.7L42609.7,16362.7ZM42609.7,16233.1C42609.7,16190.5 42599.3,16169.2 42578.5,16169.2C42557.5,16169.2 42547,16190.5 42547,16233.1C42547,16277.3 42557.9,16299.4 42579.6,16299.4C42599.7,16299.4 42609.7,16277.3 42609.7,16233.1Z" style="fill:rgb(0,42,54);fill-rule:nonzero;"/>
                <path d="M42789,16038L42870.1,16038L42870.1,16106.3L42901.6,16106.3L42901.6,16173.7L42869.5,16173.7L42869.5,16362.7L42789,16362.7L42789,16173.2L42758.3,16173.2L42758.3,16106.3L42789,16106.3L42789,16038Z" style="fill:rgb(0,42,54);fill-rule:nonzero;"/>
                <path d="M42979.7,16038L43060.8,16038L43060.8,16106.3L43092.3,16106.3L43092.3,16173.7L43060.2,16173.7L43060.2,16362.7L42979.7,16362.7L42979.7,16173.2L42949,16173.2L42949,16106.3L42979.7,16106.3L42979.7,16038Z" style="fill:rgb(0,42,54);fill-rule:nonzero;"/>
                <path d="M43280.7,16284.3L43349,16284.3C43336,16341.9 43303.5,16370.7 43251.5,16370.7C43219,16370.7 43193.2,16358.4 43174.3,16333.7C43155.3,16309 43145.9,16274.9 43145.9,16231.4C43145.9,16190.9 43155.3,16158.4 43174.3,16134C43193.2,16109.6 43218.4,16097.3 43249.8,16097.3C43268.8,16097.3 43287,16103.2 43304.4,16115C43321.9,16126.8 43334.6,16142.5 43342.6,16162C43350.6,16181.5 43355.1,16212.3 43356,16254.2L43220.8,16254.2C43221.9,16292.3 43232.5,16311.4 43252.6,16311.4C43259.5,16311.4 43265.6,16308.9 43271,16303.9C43276.4,16298.8 43279.6,16292.3 43280.7,16284.3ZM43221.9,16210.2L43280.7,16210.2C43280.2,16192.2 43277.7,16178.9 43273.2,16170.2C43268.8,16161.6 43261.7,16157.3 43252,16157.3C43241.3,16157.3 43233.6,16161.4 43228.9,16169.8C43224.3,16178.2 43221.9,16191.6 43221.9,16210.2Z" style="fill:rgb(0,42,54);fill-rule:nonzero;"/>
                <path d="M43511,16106.3L43511,16141.1L43512.4,16141.1C43531.4,16112.3 43554.5,16097.9 43581.8,16097.9C43599.6,16097.9 43613.8,16103.9 43624.3,16115.7C43634.8,16127.6 43640,16143.7 43640,16164L43640,16362.7L43558.9,16362.7L43558.9,16204.6C43558.9,16195.9 43556.9,16188.8 43552.8,16183.2C43548.7,16177.6 43543.4,16174.8 43536.9,16174.8C43519.7,16174.8 43511,16185.7 43511,16207.4L43511,16362.7L43430.2,16362.7L43430.2,16106.3L43511,16106.3Z" style="fill:rgb(0,42,54);fill-rule:nonzero;"/>
            </g>
        </g>
        <g transform="matrix(0.702425,0,0,0.288503,13446.9,12907.8)">
            <g transform="matrix(2.18431,0,0,5.3182,-51159.9,-77223.4)">
                <g transform="matrix(1,0,0,1,0.960729,0.443217)">
                    <path d="M43756.1,17888.3C43756.1,17888.3 44261.9,18033.6 44699.6,17753.3" style="fill:none;stroke:rgb(0,42,54);stroke-width:59.74px;"/>
                </g>
                <g transform="matrix(0.899013,0.437922,-0.437922,0.899013,11836.1,-17682.9)">
                    <path d="M44896.1,17450.2C44896.1,17450.2 45036.1,17492.4 45077.5,17450.2C45077.5,17450.2 45111.3,17592.4 45168.5,17607.1" style="fill:none;stroke:rgb(0,42,54);stroke-width:59.74px;"/>
                </g>
            </g>
        </g>
    </g>
</svg>
