<?xml version="1.0" encoding="UTF-8" standalone="no"?>
<!DOCTYPE svg PUBLIC "-//W3C//DTD SVG 1.1//EN" "http://www.w3.org/Graphics/SVG/1.1/DTD/svg11.dtd">
<svg width="100%" height="100%" viewBox="0 0 2481 2481" version="1.1" xmlns="http://www.w3.org/2000/svg" xmlns:xlink="http://www.w3.org/1999/xlink" xml:space="preserve" xmlns:serif="http://www.serif.com/" style="fill-rule:evenodd;clip-rule:evenodd;stroke-linecap:round;stroke-linejoin:round;stroke-miterlimit:1.5;">
    <g transform="matrix(1,0,0,1,-1322.88,-17326.7)">
        <g transform="matrix(1,0,0,1,1322.88,17114.5)">
            <circle cx="1240.16" cy="1452.34" r="1240.16" style="fill:rgb(0,42,54);"/>
        </g>
        <g transform="matrix(0.732312,0,0,0.732312,-22805.4,-8123.41)">
            <path d="M34454.6,37464.6L34397.5,37665.9C34397.5,37665.9 34661.6,37785.5 34862.8,37665.9L34801.5,37460.7L34454.6,37464.6Z" style="fill:rgb(167,187,198);"/>
        </g>
        <g transform="matrix(0.661147,0,0,0.661147,-17599.1,-1798.33)">
            <path d="M30498.1,29935.9C31043.5,29940.9 31386.5,30346.9 31349.6,30860.7C31313,31369.8 30968,31989.9 30498.1,31989.9C30028.2,31989.9 29687.7,31369.5 29646.6,30860.7C29604.9,30343.9 29935.9,29930.8 30498.1,29935.9Z" style="fill:rgb(186,202,210);"/>
        </g>
        <g transform="matrix(0.732312,0,0,0.732312,-20808.3,-3896.63)">
            <path d="M32163.8,31670.4L32035,31475.3L31784.1,31475.3L31663.6,31668.7" style="fill:none;stroke:rgb(152,174,186);stroke-width:22.76px;"/>
        </g>
        <g transform="matrix(0.732312,0,0,0.732312,-20808.3,-3896.63)">
            <path d="M31711.7,29892L31539.1,30537.4L32281.2,30537.4L32117.4,29892L31711.7,29892Z" style="fill:none;stroke:rgb(152,174,186);stroke-width:22.76px;"/>
        </g>
        <g transform="matrix(0.732312,0,0,0.732312,-20769.5,-3897.09)">
            <g>
                <g transform="matrix(-1.06949,0,0,0.977612,62973,667.293)">
                    <ellipse cx="29468.2" cy="30743.7" rx="146.328" ry="166.169" style="fill:rgb(237,30,121);"/>
                </g>
                <g transform="matrix(-1,0,0,1,60915.3,11.4882)">
                    <path d="M29269.2,30677.7C29269.2,30677.7 29369.7,30538.8 29633.8,30628.1C29633.8,30628.1 29668.5,30633 29702,30574.7C29702,30574.7 29380.8,30414.8 29269.2,30677.7Z" style="fill:rgb(0,42,54);"/>
                </g>
            </g>
            <g transform="matrix(1,0,0,1,0,-0.699135)">
                <circle cx="31557" cy="30716.2" r="56.481" style="fill:white;"/>
            </g>
            <g transform="matrix(0.394051,0,0,0.394051,19061.2,18660.8)">
                <circle cx="31557" cy="30716.2" r="56.481" style="fill:white;"/>
            </g>
        </g>
        <g transform="matrix(0.732312,0,0,0.732312,-20828.6,-3897.09)">
            <g transform="matrix(1,0,0,1,87.1923,-22.4405)">
                <g transform="matrix(1.06949,0,0,0.977612,737.862,689.734)">
                    <ellipse cx="29468.2" cy="30743.7" rx="146.328" ry="166.169" style="fill:rgb(237,30,121);"/>
                </g>
                <g transform="matrix(1,0,0,1,2795.52,33.9288)">
                    <path d="M29269.2,30677.7C29269.2,30677.7 29369.7,30538.8 29633.8,30628.1C29633.8,30628.1 29668.5,30633 29702,30574.7C29702,30574.7 29380.8,30414.8 29269.2,30677.7Z" style="fill:rgb(0,42,54);"/>
                </g>
            </g>
            <g transform="matrix(1,0,0,1,884.077,-8.11084)">
                <circle cx="31557" cy="30716.2" r="56.481" style="fill:white;"/>
            </g>
            <g transform="matrix(0.394051,0,0,0.394051,19945.3,18653.4)">
                <circle cx="31557" cy="30716.2" r="56.481" style="fill:white;"/>
            </g>
        </g>
        <g transform="matrix(0.732312,0,0,0.732312,-20808.3,-3896.63)">
            <path d="M31170.4,30884.5L31369,30926L31539.1,31456.5L31539.1,31575.1" style="fill:none;stroke:rgb(152,174,186);stroke-width:22.76px;"/>
        </g>
        <g transform="matrix(-0.732312,0,0,0.732312,25928.1,-3896.63)">
            <path d="M31170.4,30884.5L31369,30926L31539.1,31456.5L31539.1,31586.6" style="fill:none;stroke:rgb(152,174,186);stroke-width:22.76px;"/>
        </g>
        <g transform="matrix(0.732312,0,0,0.732312,-20808.3,-3896.63)">
            <path d="M31910.1,30078.8L31916.2,31287.4" style="fill:none;stroke:rgb(152,174,186);stroke-width:22.76px;"/>
        </g>
        <g transform="matrix(0.732312,0,0,0.732312,-20808.3,-3896.63)">
            <path d="M31491,31303.4L31784.1,31475.3" style="fill:none;stroke:rgb(152,174,186);stroke-width:22.76px;"/>
        </g>
        <g transform="matrix(-0.732312,0,0,0.732312,25927.2,-3896.63)">
            <path d="M31491,31303.4L31784.1,31475.3" style="fill:none;stroke:rgb(152,174,186);stroke-width:22.76px;"/>
        </g>
        <g transform="matrix(0.897188,0,0,0.897188,-23480.9,-9053.38)">
            <path d="M28921.8,31271.1C28921.8,31271.1 29152,31220.5 29262.1,31178.9C29262.1,31178.9 29154.9,31478.5 28921.8,31271.1Z" style="fill:white;stroke:rgb(237,30,121);stroke-width:41.8px;"/>
        </g>
        <g transform="matrix(0.732312,5.08144e-18,2.54072e-18,0.732312,-20829.3,-8265.61)">
            <ellipse cx="32544.5" cy="36916.7" rx="130" ry="66.154" style="fill:rgb(255,204,226);"/>
        </g>
        <g transform="matrix(0.732312,5.08144e-18,2.54072e-18,0.732312,-21717.2,-8265.61)">
            <ellipse cx="32544.5" cy="36916.7" rx="130" ry="66.154" style="fill:rgb(255,204,226);"/>
        </g>
        <g transform="matrix(0.732312,0,0,0.732312,-22798.3,-5869.28)">
            <path d="M35301.7,33760.1C35304.3,33724.5 35274.2,33151.7 35274.2,33151.7C35189,33140.9 35175,33133.1 35175,33133.1C35176.6,33088.2 35130.1,33004.5 35130.1,33004.5C35130.1,33086.6 35106.8,33106.8 35106.8,33106.8C34962.7,33178.1 34874.3,33116.1 34874.3,33116.1C34874.3,32976.6 34812.3,32863.4 34812.3,32863.4C34820.1,32973.5 34784.4,33057.2 34784.4,33057.2C34631,33119.2 34567.4,33043.2 34567.4,33043.2C34528.5,32992.3 34557.2,32823.4 34565.7,32778.7C34563.2,32778.4 34560.6,32778.1 34558.1,32777.8C34399,32943.9 34416.5,33106.8 34416.5,33106.8L34207.6,33140.1C34163.7,33119.7 34197.2,32994.7 34197.2,32994.7C34183.3,33039.7 34037.6,33183 34037.6,33183C33930.6,33269.8 33952.3,33255.3 33952.3,33255.3C33921.3,33269.3 33960.3,33600.7 33965.9,33633.5L33967.1,33633.8C33990,33803.8 33862.2,34475.7 33862.2,34475.7C33858.5,34262.4 33817.7,33707.4 33810.7,33613.3C33791.6,33576.1 33776.4,33530.6 33776.4,33530.6C33726,33271 33793.8,33094.7 33793.8,33094.7C33871.3,32860.2 34041.8,32697.5 34041.8,32697.5C34116.1,32640.1 34204.3,32600.7 34280.2,32574.6C34260.9,32538.3 34244.8,32497.7 34231.9,32453.2C34187.8,32300.1 34414.2,32228.4 34633.7,32125.9C34863.4,32018.6 35060.7,32215.9 35035.5,32453.2C35031.5,32490.5 35021.5,32526 35006,32558.8C35050.6,32568.5 35053.3,32576.7 35053.3,32576.7C35156,32634.8 35225.7,32697.8 35225.7,32697.8C35462.1,32901.2 35488,33207.7 35488,33207.7C35520.4,33322.8 35505.2,33433.6 35473.8,33527C35442.8,33727.3 35272.4,34517 35272.4,34517C35239,34451.6 35271.1,33988.1 35301.7,33760.1Z" style="fill:rgb(237,30,121);"/>
        </g>
        <g transform="matrix(0.38562,0.801315,-1.28823,0.619938,32826.3,-31878.8)">
            <g transform="matrix(0.681533,0.22006,-0.353778,0.423933,26570,11678.2)">
                <clipPath id="_clip1">
                    <rect x="32133" y="36657.1" width="192.917" height="418.137"/>
                </clipPath>
                <g clip-path="url(#_clip1)">
                    <path d="M32133,36114.4C32133,36114.4 32145.2,37034.9 32229.5,37075.2C32313.7,37034.9 32325.9,36114.4 32325.9,36114.4L32133,36114.4" style="fill:rgb(255,204,226);"/>
                </g>
            </g>
            <g transform="matrix(0.591424,0.190965,-0.432655,0.518451,32415.7,9065.14)">
                <clipPath id="_clip2">
                    <rect x="32102.7" y="35818.9" width="296.909" height="426.562"/>
                </clipPath>
                <g clip-path="url(#_clip2)">
                    <path d="M32281.2,35855.7C32281.2,35855.7 31951,36165.9 32207.1,36276.3C32207.1,36276.3 32455,36331.5 32398.2,36105.8C32387,36072.6 32300,36076.5 32281.2,35855.7Z" style="fill:rgb(255,204,226);"/>
                </g>
            </g>
        </g>
        <g transform="matrix(0.732312,0,0,0.732312,-22805.4,-8123.41)">
            <path d="M34415.4,37532.3C34415.4,37532.3 34649.3,37621.9 34846.2,37532.8" style="fill:none;stroke:rgb(152,174,186);stroke-width:22.76px;"/>
        </g>
        <g transform="matrix(0.800089,0,0,0.732312,-25154.5,-8068.82)">
            <path d="M34415.4,37532.3C34415.4,37532.3 34649.3,37621.9 34846.2,37532.8" style="fill:none;stroke:rgb(152,174,186);stroke-width:21.73px;"/>
        </g>
        <g transform="matrix(0.695977,0.227811,-0.227811,0.695977,-12941.2,-14567.6)">
            <rect x="34311.3" y="37502.1" width="8.719" height="32.967" style="fill:rgb(152,174,186);stroke:rgb(152,174,186);stroke-width:22.76px;"/>
        </g>
        <g transform="matrix(0.76039,0.227811,-0.248895,0.695977,-14377.3,-14513)">
            <rect x="34311.3" y="37502.1" width="8.719" height="32.967" style="fill:rgb(152,174,186);stroke:rgb(152,174,186);stroke-width:22.32px;"/>
        </g>
        <g transform="matrix(0.680849,-0.269678,0.269678,0.680849,-30764.2,3071.62)">
            <rect x="34311.3" y="37502.1" width="8.719" height="32.967" style="fill:rgb(152,174,186);stroke:rgb(152,174,186);stroke-width:22.76px;"/>
        </g>
        <g transform="matrix(0.743862,-0.269678,0.294637,0.680849,-33849.8,3126.2)">
            <rect x="34311.3" y="37502.1" width="8.719" height="32.967" style="fill:rgb(152,174,186);stroke:rgb(152,174,186);stroke-width:21.1px;"/>
        </g>
    </g>
</svg>
